<svg width="120" height="38" viewBox="0 0 120 38" fill="none" xmlns="http://www.w3.org/2000/svg">
<rect width="120" height="38" fill="white"/>
<path d="M3.67614 13.9119V12.8182H11.3125V13.9119H8.1108V23H6.87784V13.9119H3.67614ZM15.1506 23.1591C14.4148 23.1591 13.7801 22.9967 13.2464 22.6719C12.7161 22.3438 12.3068 21.8864 12.0185 21.2997C11.7334 20.7098 11.5909 20.0237 11.5909 19.2415C11.5909 18.4593 11.7334 17.7699 12.0185 17.1733C12.3068 16.5734 12.7079 16.1061 13.2216 15.7713C13.7386 15.4332 14.3419 15.2642 15.0312 15.2642C15.429 15.2642 15.8217 15.3305 16.2095 15.4631C16.5973 15.5956 16.9503 15.8111 17.2685 16.1094C17.5866 16.4044 17.8402 16.7955 18.0291 17.2827C18.218 17.7699 18.3125 18.3698 18.3125 19.0824V19.5795H12.4261V18.5653H17.1193C17.1193 18.1345 17.0331 17.75 16.8608 17.4119C16.6918 17.0739 16.4498 16.8071 16.1349 16.6115C15.8234 16.416 15.4555 16.3182 15.0312 16.3182C14.5639 16.3182 14.1596 16.4342 13.8182 16.6662C13.4801 16.8949 13.2199 17.1932 13.0376 17.5611C12.8554 17.929 12.7642 18.3234 12.7642 18.7443V19.4205C12.7642 19.9972 12.8636 20.486 13.0625 20.8871C13.2647 21.2848 13.5447 21.5881 13.9027 21.7969C14.2607 22.0024 14.6766 22.1051 15.1506 22.1051C15.4588 22.1051 15.7372 22.062 15.9858 21.9759C16.2377 21.8864 16.4548 21.7538 16.6371 21.5781C16.8194 21.3991 16.9602 21.1771 17.0597 20.9119L18.1932 21.2301C18.0739 21.6146 17.8733 21.9527 17.5916 22.2443C17.3099 22.5327 16.9619 22.758 16.5476 22.9205C16.1333 23.0795 15.6676 23.1591 15.1506 23.1591ZM23.1996 23.1591C22.4837 23.1591 21.8672 22.9901 21.3501 22.652C20.8331 22.3139 20.4354 21.8482 20.157 21.255C19.8786 20.6617 19.7393 19.9839 19.7393 19.2216C19.7393 18.446 19.8819 17.7616 20.1669 17.1683C20.4553 16.5717 20.8563 16.1061 21.37 15.7713C21.8871 15.4332 22.4903 15.2642 23.1797 15.2642C23.7166 15.2642 24.2005 15.3636 24.6314 15.5625C25.0623 15.7614 25.4152 16.0398 25.6903 16.3977C25.9654 16.7557 26.1361 17.1733 26.2024 17.6506H25.0291C24.9396 17.3026 24.7408 16.9943 24.4325 16.7259C24.1276 16.4541 23.7166 16.3182 23.1996 16.3182C22.7422 16.3182 22.3411 16.4375 21.9964 16.6761C21.6551 16.9115 21.3883 17.2446 21.196 17.6754C21.0071 18.103 20.9126 18.6051 20.9126 19.1818C20.9126 19.7718 21.0054 20.2855 21.1911 20.723C21.38 21.1605 21.6451 21.5002 21.9865 21.7422C22.3312 21.9841 22.7356 22.1051 23.1996 22.1051C23.5045 22.1051 23.7812 22.0521 24.0298 21.946C24.2784 21.84 24.4889 21.6875 24.6612 21.4886C24.8336 21.2898 24.9562 21.0511 25.0291 20.7727H26.2024C26.1361 21.2235 25.9721 21.6295 25.7102 21.9908C25.4517 22.3487 25.1087 22.6338 24.6811 22.8459C24.2569 23.0547 23.763 23.1591 23.1996 23.1591ZM29.0909 18.4062V23H27.9176V12.8182H29.0909V16.5568H29.1903C29.3693 16.1624 29.6378 15.8492 29.9957 15.6172C30.357 15.3819 30.8376 15.2642 31.4375 15.2642C31.9579 15.2642 32.4136 15.3686 32.8047 15.5774C33.1958 15.7829 33.4991 16.0994 33.7145 16.527C33.9332 16.9512 34.0426 17.4915 34.0426 18.1477V23H32.8693V18.2273C32.8693 17.6207 32.7119 17.1518 32.397 16.8203C32.0855 16.4856 31.6529 16.3182 31.0994 16.3182C30.715 16.3182 30.3703 16.3994 30.0653 16.5618C29.7637 16.7242 29.5251 16.9612 29.3494 17.2727C29.1771 17.5843 29.0909 17.9621 29.0909 18.4062ZM43.2289 23.1591C42.513 23.1591 41.8965 22.9901 41.3794 22.652C40.8624 22.3139 40.4647 21.8482 40.1863 21.255C39.9078 20.6617 39.7686 19.9839 39.7686 19.2216C39.7686 18.446 39.9112 17.7616 40.1962 17.1683C40.4846 16.5717 40.8856 16.1061 41.3993 15.7713C41.9164 15.4332 42.5196 15.2642 43.209 15.2642C43.7459 15.2642 44.2298 15.3636 44.6607 15.5625C45.0916 15.7614 45.4445 16.0398 45.7196 16.3977C45.9947 16.7557 46.1654 17.1733 46.2317 17.6506H45.0584C44.9689 17.3026 44.7701 16.9943 44.4618 16.7259C44.1569 16.4541 43.7459 16.3182 43.2289 16.3182C42.7715 16.3182 42.3704 16.4375 42.0257 16.6761C41.6844 16.9115 41.4176 17.2446 41.2253 17.6754C41.0364 18.103 40.9419 18.6051 40.9419 19.1818C40.9419 19.7718 41.0347 20.2855 41.2203 20.723C41.4093 21.1605 41.6744 21.5002 42.0158 21.7422C42.3605 21.9841 42.7649 22.1051 43.2289 22.1051C43.5338 22.1051 43.8105 22.0521 44.0591 21.946C44.3077 21.84 44.5182 21.6875 44.6905 21.4886C44.8629 21.2898 44.9855 21.0511 45.0584 20.7727H46.2317C46.1654 21.2235 46.0014 21.6295 45.7395 21.9908C45.481 22.3487 45.138 22.6338 44.7104 22.8459C44.2862 23.0547 43.7923 23.1591 43.2289 23.1591ZM50.1941 23.179C49.7102 23.179 49.271 23.0878 48.8766 22.9055C48.4822 22.7199 48.169 22.4531 47.937 22.1051C47.705 21.7538 47.589 21.3295 47.589 20.8324C47.589 20.3949 47.6751 20.0402 47.8475 19.7685C48.0198 19.4934 48.2502 19.2779 48.5385 19.1222C48.8269 18.9664 49.1451 18.8504 49.4931 18.7741C49.8444 18.6946 50.1974 18.6316 50.552 18.5852C51.016 18.5256 51.3922 18.4808 51.6806 18.451C51.9722 18.4179 52.1844 18.3632 52.3169 18.2869C52.4528 18.2107 52.5208 18.0781 52.5208 17.8892V17.8494C52.5208 17.3589 52.3865 16.9777 52.1181 16.706C51.8529 16.4342 51.4502 16.2983 50.91 16.2983C50.3498 16.2983 49.9107 16.4209 49.5925 16.6662C49.2743 16.9115 49.0506 17.1733 48.9213 17.4517L47.8077 17.054C48.0066 16.59 48.2717 16.2287 48.6032 15.9702C48.9379 15.7083 49.3025 15.526 49.6969 15.4233C50.0946 15.3172 50.4857 15.2642 50.8702 15.2642C51.1155 15.2642 51.3972 15.294 51.7154 15.3537C52.0369 15.41 52.3468 15.5277 52.6451 15.7067C52.9467 15.8857 53.1969 16.1558 53.3958 16.517C53.5946 16.8783 53.6941 17.3622 53.6941 17.9688V23H52.5208V21.9659H52.4611C52.3816 22.1316 52.249 22.3089 52.0634 22.4979C51.8778 22.6868 51.6309 22.8475 51.3226 22.9801C51.0144 23.1127 50.6382 23.179 50.1941 23.179ZM50.373 22.125C50.8371 22.125 51.2282 22.0339 51.5463 21.8516C51.8678 21.6693 52.1098 21.4339 52.2722 21.1456C52.4379 20.8572 52.5208 20.554 52.5208 20.2358V19.1619C52.4711 19.2216 52.3617 19.2763 52.1926 19.326C52.0269 19.3724 51.8347 19.4138 51.6159 19.4503C51.4005 19.4834 51.19 19.5133 50.9846 19.5398C50.7824 19.563 50.6183 19.5829 50.4924 19.5994C50.1874 19.6392 49.9024 19.7038 49.6373 19.7933C49.3754 19.8795 49.1633 20.0104 49.0009 20.1861C48.8418 20.3584 48.7623 20.5937 48.7623 20.892C48.7623 21.2997 48.9131 21.608 49.2147 21.8168C49.5196 22.0223 49.9057 22.125 50.373 22.125ZM55.8356 23V15.3636H56.9691V16.5568H57.0685C57.2276 16.1491 57.4845 15.8326 57.8391 15.6072C58.1938 15.3786 58.6197 15.2642 59.1168 15.2642C59.6206 15.2642 60.0399 15.3786 60.3746 15.6072C60.7127 15.8326 60.9762 16.1491 61.1651 16.5568H61.2447C61.4402 16.1624 61.7335 15.8492 62.1246 15.6172C62.5157 15.3819 62.9847 15.2642 63.5316 15.2642C64.2144 15.2642 64.7728 15.478 65.207 15.9055C65.6412 16.3298 65.8583 16.991 65.8583 17.8892V23H64.685V17.8892C64.685 17.3258 64.5309 16.9231 64.2227 16.6811C63.9144 16.4392 63.5515 16.3182 63.1339 16.3182C62.5969 16.3182 62.181 16.4806 61.886 16.8054C61.591 17.1269 61.4435 17.5346 61.4435 18.0284V23H60.2504V17.7699C60.2504 17.3357 60.1095 16.986 59.8278 16.7209C59.546 16.4524 59.1831 16.3182 58.739 16.3182C58.4341 16.3182 58.149 16.3994 57.8839 16.5618C57.622 16.7242 57.4099 16.9496 57.2475 17.2379C57.0884 17.523 57.0089 17.8527 57.0089 18.2273V23H55.8356ZM68.0036 25.8636V15.3636H69.1371V16.5767H69.2763C69.3625 16.4441 69.4818 16.2751 69.6342 16.0696C69.79 15.8608 70.0121 15.6752 70.3004 15.5128C70.5921 15.3471 70.9865 15.2642 71.4837 15.2642C72.1267 15.2642 72.6934 15.425 73.1839 15.7464C73.6745 16.0679 74.0573 16.5237 74.3324 17.1136C74.6075 17.7036 74.745 18.3996 74.745 19.2017C74.745 20.0104 74.6075 20.7114 74.3324 21.3047C74.0573 21.8946 73.6761 22.352 73.1889 22.6768C72.7017 22.9983 72.1399 23.1591 71.5036 23.1591C71.013 23.1591 70.6203 23.0779 70.3253 22.9155C70.0303 22.7498 69.8033 22.5625 69.6442 22.3537C69.4851 22.1416 69.3625 21.9659 69.2763 21.8267H69.1768V25.8636H68.0036ZM69.157 19.1818C69.157 19.7585 69.2415 20.2673 69.4105 20.7081C69.5795 21.1456 69.8265 21.4886 70.1513 21.7372C70.4761 21.9825 70.8738 22.1051 71.3445 22.1051C71.835 22.1051 72.2443 21.9759 72.5724 21.7173C72.9039 21.4555 73.1525 21.1042 73.3182 20.6634C73.4872 20.2192 73.5717 19.7254 73.5717 19.1818C73.5717 18.6449 73.4889 18.161 73.3232 17.7301C73.1607 17.2959 72.9138 16.9529 72.5824 16.701C72.2543 16.4458 71.8416 16.3182 71.3445 16.3182C70.8672 16.3182 70.4661 16.4392 70.1413 16.6811C69.8165 16.9197 69.5713 17.2545 69.4055 17.6854C69.2398 18.1129 69.157 18.6117 69.157 19.1818ZM79.7365 23.1591C79.0007 23.1591 78.366 22.9967 77.8324 22.6719C77.3021 22.3438 76.8928 21.8864 76.6044 21.2997C76.3194 20.7098 76.1768 20.0237 76.1768 19.2415C76.1768 18.4593 76.3194 17.7699 76.6044 17.1733C76.8928 16.5734 77.2938 16.1061 77.8075 15.7713C78.3246 15.4332 78.9278 15.2642 79.6172 15.2642C80.0149 15.2642 80.4077 15.3305 80.7955 15.4631C81.1832 15.5956 81.5362 15.8111 81.8544 16.1094C82.1726 16.4044 82.4261 16.7955 82.6151 17.2827C82.804 17.7699 82.8984 18.3698 82.8984 19.0824V19.5795H77.0121V18.5653H81.7053C81.7053 18.1345 81.6191 17.75 81.4467 17.4119C81.2777 17.0739 81.0357 16.8071 80.7209 16.6115C80.4093 16.416 80.0414 16.3182 79.6172 16.3182C79.1499 16.3182 78.7455 16.4342 78.4041 16.6662C78.0661 16.8949 77.8059 17.1932 77.6236 17.5611C77.4413 17.929 77.3501 18.3234 77.3501 18.7443V19.4205C77.3501 19.9972 77.4496 20.486 77.6484 20.8871C77.8506 21.2848 78.1307 21.5881 78.4886 21.7969C78.8466 22.0024 79.2625 22.1051 79.7365 22.1051C80.0447 22.1051 80.3232 22.062 80.5717 21.9759C80.8236 21.8864 81.0407 21.7538 81.223 21.5781C81.4053 21.3991 81.5462 21.1771 81.6456 20.9119L82.7791 21.2301C82.6598 21.6146 82.4593 21.9527 82.1776 22.2443C81.8958 22.5327 81.5478 22.758 81.1335 22.9205C80.7192 23.0795 80.2536 23.1591 79.7365 23.1591ZM90.0923 17.0739L89.0384 17.3722C88.9721 17.1965 88.8743 17.0258 88.745 16.8601C88.6191 16.6911 88.4467 16.5518 88.228 16.4425C88.0092 16.3331 87.7292 16.2784 87.3878 16.2784C86.9205 16.2784 86.531 16.3861 86.2195 16.6016C85.9112 16.8137 85.7571 17.0838 85.7571 17.4119C85.7571 17.7036 85.8632 17.9339 86.0753 18.103C86.2874 18.272 86.6188 18.4129 87.0696 18.5256L88.2031 18.804C88.8859 18.9697 89.3946 19.2232 89.7294 19.5646C90.0642 19.9027 90.2315 20.3385 90.2315 20.8722C90.2315 21.3097 90.1056 21.7008 89.8537 22.0455C89.6051 22.3902 89.2571 22.6619 88.8097 22.8608C88.3622 23.0597 87.8419 23.1591 87.2486 23.1591C86.4697 23.1591 85.825 22.9901 85.3146 22.652C84.8042 22.3139 84.4811 21.8201 84.3452 21.1705L85.4588 20.892C85.5649 21.303 85.7654 21.6113 86.0604 21.8168C86.3587 22.0223 86.7481 22.125 87.2287 22.125C87.7756 22.125 88.2098 22.009 88.5312 21.777C88.8561 21.5417 89.0185 21.2599 89.0185 20.9318C89.0185 20.6667 88.9257 20.4446 88.7401 20.2656C88.5545 20.0833 88.2694 19.9474 87.8849 19.858L86.6122 19.5597C85.9129 19.3939 85.3991 19.1371 85.071 18.7891C84.7462 18.4377 84.5838 17.9986 84.5838 17.4716C84.5838 17.0407 84.7048 16.6596 84.9467 16.3281C85.192 15.9967 85.5251 15.7365 85.946 15.5476C86.3703 15.3587 86.8509 15.2642 87.3878 15.2642C88.1435 15.2642 88.7367 15.4299 89.1676 15.7614C89.6018 16.0928 89.91 16.5303 90.0923 17.0739ZM91.9977 23V15.3636H93.171V23H91.9977ZM92.5943 14.0909C92.3656 14.0909 92.1684 14.013 92.0027 13.8572C91.8403 13.7015 91.7591 13.5142 91.7591 13.2955C91.7591 13.0767 91.8403 12.8894 92.0027 12.7337C92.1684 12.5779 92.3656 12.5 92.5943 12.5C92.823 12.5 93.0185 12.5779 93.1809 12.7337C93.3467 12.8894 93.4295 13.0767 93.4295 13.2955C93.4295 13.5142 93.3467 13.7015 93.1809 13.8572C93.0185 14.013 92.823 14.0909 92.5943 14.0909ZM96.4933 18.4062V23H95.32V15.3636H96.4535V16.5568H96.5529C96.7319 16.169 97.0037 15.8575 97.3683 15.6222C97.7328 15.3835 98.2035 15.2642 98.7802 15.2642C99.2972 15.2642 99.7496 15.3703 100.137 15.5824C100.525 15.7912 100.827 16.1094 101.042 16.5369C101.258 16.9612 101.365 17.4981 101.365 18.1477V23H100.192V18.2273C100.192 17.6274 100.036 17.16 99.7248 16.8253C99.4132 16.4872 98.9857 16.3182 98.4421 16.3182C98.0676 16.3182 97.7328 16.3994 97.4379 16.5618C97.1462 16.7242 96.9158 16.9612 96.7468 17.2727C96.5778 17.5843 96.4933 17.9621 96.4933 18.4062ZM106.612 23.1591C105.922 23.1591 105.317 22.995 104.797 22.6669C104.28 22.3388 103.876 21.8797 103.584 21.2898C103.296 20.6998 103.151 20.0104 103.151 19.2216C103.151 18.4261 103.296 17.7318 103.584 17.1385C103.876 16.5452 104.28 16.0845 104.797 15.7564C105.317 15.4283 105.922 15.2642 106.612 15.2642C107.301 15.2642 107.904 15.4283 108.421 15.7564C108.942 16.0845 109.346 16.5452 109.634 17.1385C109.926 17.7318 110.072 18.4261 110.072 19.2216C110.072 20.0104 109.926 20.6998 109.634 21.2898C109.346 21.8797 108.942 22.3388 108.421 22.6669C107.904 22.995 107.301 23.1591 106.612 23.1591ZM106.612 22.1051C107.135 22.1051 107.566 21.9709 107.904 21.7024C108.242 21.4339 108.493 21.081 108.655 20.6435C108.817 20.206 108.899 19.732 108.899 19.2216C108.899 18.7112 108.817 18.2356 108.655 17.7947C108.493 17.3539 108.242 16.9976 107.904 16.7259C107.566 16.4541 107.135 16.3182 106.612 16.3182C106.088 16.3182 105.657 16.4541 105.319 16.7259C104.981 16.9976 104.731 17.3539 104.568 17.7947C104.406 18.2356 104.325 18.7112 104.325 19.2216C104.325 19.732 104.406 20.206 104.568 20.6435C104.731 21.081 104.981 21.4339 105.319 21.7024C105.657 21.9709 106.088 22.1051 106.612 22.1051ZM117.272 17.0739L116.218 17.3722C116.152 17.1965 116.054 17.0258 115.925 16.8601C115.799 16.6911 115.626 16.5518 115.408 16.4425C115.189 16.3331 114.909 16.2784 114.567 16.2784C114.1 16.2784 113.711 16.3861 113.399 16.6016C113.091 16.8137 112.937 17.0838 112.937 17.4119C112.937 17.7036 113.043 17.9339 113.255 18.103C113.467 18.272 113.799 18.4129 114.249 18.5256L115.383 18.804C116.066 18.9697 116.574 19.2232 116.909 19.5646C117.244 19.9027 117.411 20.3385 117.411 20.8722C117.411 21.3097 117.285 21.7008 117.033 22.0455C116.785 22.3902 116.437 22.6619 115.989 22.8608C115.542 23.0597 115.022 23.1591 114.428 23.1591C113.649 23.1591 113.005 22.9901 112.494 22.652C111.984 22.3139 111.661 21.8201 111.525 21.1705L112.638 20.892C112.745 21.303 112.945 21.6113 113.24 21.8168C113.538 22.0223 113.928 22.125 114.408 22.125C114.955 22.125 115.389 22.009 115.711 21.777C116.036 21.5417 116.198 21.2599 116.198 20.9318C116.198 20.6667 116.105 20.4446 115.92 20.2656C115.734 20.0833 115.449 19.9474 115.065 19.858L113.792 19.5597C113.093 19.3939 112.579 19.1371 112.251 18.7891C111.926 18.4377 111.763 17.9986 111.763 17.4716C111.763 17.0407 111.884 16.6596 112.126 16.3281C112.372 15.9967 112.705 15.7365 113.126 15.5476C113.55 15.3587 114.031 15.2642 114.567 15.2642C115.323 15.2642 115.916 15.4299 116.347 15.7614C116.781 16.0928 117.09 16.5303 117.272 17.0739Z" fill="black"/>
<path d="M3.67614 13.9119H2.87614V14.7119H3.67614V13.9119ZM3.67614 12.8182V12.0182H2.87614V12.8182H3.67614ZM11.3125 12.8182H12.1125V12.0182H11.3125V12.8182ZM11.3125 13.9119V14.7119H12.1125V13.9119H11.3125ZM8.1108 13.9119V13.1119H7.3108V13.9119H8.1108ZM8.1108 23V23.8H8.9108V23H8.1108ZM6.87784 23H6.07784V23.8H6.87784V23ZM6.87784 13.9119H7.67784V13.1119H6.87784V13.9119ZM4.47614 13.9119V12.8182H2.87614V13.9119H4.47614ZM3.67614 13.6182H11.3125V12.0182H3.67614V13.6182ZM10.5125 12.8182V13.9119H12.1125V12.8182H10.5125ZM11.3125 13.1119H8.1108V14.7119H11.3125V13.1119ZM7.3108 13.9119V23H8.9108V13.9119H7.3108ZM8.1108 22.2H6.87784V23.8H8.1108V22.2ZM7.67784 23V13.9119H6.07784V23H7.67784ZM6.87784 13.1119H3.67614V14.7119H6.87784V13.1119ZM13.2464 22.6719L12.8255 23.3522L12.8305 23.3552L13.2464 22.6719ZM12.0185 21.2997L11.2981 21.6477L11.3005 21.6526L12.0185 21.2997ZM12.0185 17.1733L11.2974 16.8267L11.2966 16.8284L12.0185 17.1733ZM13.2216 15.7713L13.6583 16.4416L13.6594 16.4409L13.2216 15.7713ZM16.2095 15.4631L16.4683 14.7061L16.4683 14.7061L16.2095 15.4631ZM17.2685 16.1094L16.7213 16.693L16.7246 16.696L17.2685 16.1094ZM18.0291 17.2827L18.775 16.9934L18.775 16.9934L18.0291 17.2827ZM18.3125 19.5795V20.3795H19.1125V19.5795H18.3125ZM12.4261 19.5795H11.6261V20.3795H12.4261V19.5795ZM12.4261 18.5653V17.7653H11.6261V18.5653H12.4261ZM17.1193 18.5653V19.3653H17.9193V18.5653H17.1193ZM16.8608 17.4119L16.1452 17.7697L16.1481 17.7753L16.8608 17.4119ZM16.1349 16.6115L15.7096 17.2891L15.7129 17.2911L16.1349 16.6115ZM13.8182 16.6662L14.2664 17.3288L14.2679 17.3279L13.8182 16.6662ZM13.0376 17.5611L12.3208 17.2059L12.3208 17.2059L13.0376 17.5611ZM13.0625 20.8871L12.3457 21.2425L12.3494 21.2496L13.0625 20.8871ZM13.9027 21.7969L13.4996 22.4879L13.5044 22.4907L13.9027 21.7969ZM15.9858 21.9759L16.2478 22.7317L16.2536 22.7297L15.9858 21.9759ZM16.6371 21.5781L17.1922 22.1542L17.1975 22.149L16.6371 21.5781ZM17.0597 20.9119L17.2759 20.1417L16.5685 19.9432L16.3106 20.631L17.0597 20.9119ZM18.1932 21.2301L18.9572 21.4672L19.2009 20.6821L18.4094 20.4599L18.1932 21.2301ZM17.5916 22.2443L18.1639 22.8034L18.167 22.8001L17.5916 22.2443ZM16.5476 22.9205L16.8344 23.6673L16.8396 23.6653L16.5476 22.9205ZM15.1506 22.3591C14.5351 22.3591 14.0499 22.2244 13.6624 21.9885L12.8305 23.3552C13.5102 23.769 14.2944 23.9591 15.1506 23.9591V22.3591ZM13.6674 21.9916C13.2712 21.7464 12.9618 21.4054 12.7364 20.9468L11.3005 21.6526C11.6518 22.3673 12.1611 22.9411 12.8255 23.3522L13.6674 21.9916ZM12.7388 20.9517C12.5154 20.4893 12.3909 19.9262 12.3909 19.2415H10.7909C10.7909 20.1211 10.9515 20.9302 11.2981 21.6477L12.7388 20.9517ZM12.3909 19.2415C12.3909 18.557 12.5153 17.9891 12.7403 17.5182L11.2966 16.8284C10.9516 17.5507 10.7909 18.3616 10.7909 19.2415H12.3909ZM12.7395 17.5199C12.9701 17.0401 13.2776 16.6897 13.6583 16.4416L12.7848 15.101C12.1381 15.5225 11.6436 16.1066 11.2974 16.8267L12.7395 17.5199ZM13.6594 16.4409C14.0315 16.1976 14.4787 16.0642 15.0312 16.0642V14.4642C14.205 14.4642 13.4458 14.6689 12.7838 15.1017L13.6594 16.4409ZM15.0312 16.0642C15.3383 16.0642 15.6437 16.1151 15.9507 16.2201L16.4683 14.7061C15.9998 14.5459 15.5197 14.4642 15.0312 14.4642V16.0642ZM15.9507 16.2201C16.2244 16.3136 16.4805 16.4672 16.7213 16.693L17.8156 15.5257C17.4201 15.1549 16.9702 14.8777 16.4683 14.7061L15.9507 16.2201ZM16.7246 16.696C16.9374 16.8933 17.1293 17.175 17.2832 17.5719L18.775 16.9934C18.551 16.4159 18.2359 15.9154 17.8124 15.5227L16.7246 16.696ZM17.2832 17.5719C17.426 17.94 17.5125 18.4351 17.5125 19.0824H19.1125C19.1125 18.3045 19.0101 17.5998 18.775 16.9934L17.2832 17.5719ZM17.5125 19.0824V19.5795H19.1125V19.0824H17.5125ZM18.3125 18.7795H12.4261V20.3795H18.3125V18.7795ZM13.2261 19.5795V18.5653H11.6261V19.5795H13.2261ZM12.4261 19.3653H17.1193V17.7653H12.4261V19.3653ZM17.9193 18.5653C17.9193 18.0254 17.8106 17.5136 17.5735 17.0486L16.1481 17.7753C16.2557 17.9864 16.3193 18.2435 16.3193 18.5653H17.9193ZM17.5763 17.0542C17.3425 16.5865 17.0002 16.2071 16.557 15.9319L15.7129 17.2911C15.8994 17.407 16.041 17.5612 16.1453 17.7697L17.5763 17.0542ZM16.5602 15.9339C16.1027 15.6467 15.5824 15.5182 15.0312 15.5182V17.1182C15.3286 17.1182 15.5441 17.1852 15.7096 17.2891L16.5602 15.9339ZM15.0312 15.5182C14.4255 15.5182 13.8596 15.6708 13.3685 16.0045L14.2679 17.3279C14.4595 17.1976 14.7023 17.1182 15.0312 17.1182V15.5182ZM13.3699 16.0036C12.9165 16.3103 12.5642 16.7148 12.3208 17.2059L13.7545 17.9163C13.8757 17.6716 14.0437 17.4795 14.2664 17.3288L13.3699 16.0036ZM12.3208 17.2059C12.0824 17.687 11.9642 18.2034 11.9642 18.7443H13.5642C13.5642 18.4434 13.6283 18.1709 13.7545 17.9163L12.3208 17.2059ZM11.9642 18.7443V19.4205H13.5642V18.7443H11.9642ZM11.9642 19.4205C11.9642 20.0861 12.0787 20.7038 12.3458 21.2425L13.7792 20.5317C13.6486 20.2682 13.5642 19.9082 13.5642 19.4205H11.9642ZM12.3494 21.2496C12.6156 21.7734 12.9986 22.1957 13.4996 22.4879L14.3058 21.1059C14.0908 20.9805 13.9138 20.7962 13.7756 20.5246L12.3494 21.2496ZM13.5044 22.4907C14.0006 22.7755 14.5579 22.9051 15.1506 22.9051V21.3051C14.7954 21.3051 14.5207 21.2292 14.301 21.1031L13.5044 22.4907ZM15.1506 22.9051C15.533 22.9051 15.9019 22.8516 16.2478 22.7317L15.7238 21.22C15.5725 21.2724 15.3846 21.3051 15.1506 21.3051V22.9051ZM16.2536 22.7297C16.6067 22.6043 16.9233 22.4133 17.1922 22.1542L16.082 21.0021C15.9862 21.0943 15.8687 21.1685 15.718 21.222L16.2536 22.7297ZM17.1975 22.149C17.4717 21.8798 17.6728 21.5553 17.8087 21.1928L16.3106 20.631C16.2476 20.7989 16.167 20.9185 16.0766 21.0073L17.1975 22.149ZM16.8435 21.6822L17.977 22.0003L18.4094 20.4599L17.2759 20.1417L16.8435 21.6822ZM17.4291 20.993C17.3472 21.257 17.2117 21.4862 17.0162 21.6885L18.167 22.8001C18.535 22.4191 18.8005 21.9721 18.9572 21.4672L17.4291 20.993ZM17.0194 21.6852C16.8248 21.8845 16.5754 22.0503 16.2556 22.1756L16.8396 23.6653C17.3483 23.4658 17.795 23.1809 18.1638 22.8034L17.0194 21.6852ZM16.2608 22.1736C15.9518 22.2923 15.5855 22.3591 15.1506 22.3591V23.9591C15.7497 23.9591 16.3148 23.8668 16.8344 23.6673L16.2608 22.1736ZM21.3501 22.652L20.9123 23.3216L20.9123 23.3216L21.3501 22.652ZM20.1669 17.1683L19.4466 16.8202L19.4458 16.8219L20.1669 17.1683ZM21.37 15.7713L21.8068 16.4416L21.8078 16.4409L21.37 15.7713ZM25.6903 16.3977L26.3247 15.9102L26.3247 15.9102L25.6903 16.3977ZM26.2024 17.6506V18.4506H27.1212L26.9948 17.5405L26.2024 17.6506ZM25.0291 17.6506L24.2543 17.8498L24.4088 18.4506H25.0291V17.6506ZM24.4325 16.7259L23.9002 17.3231L23.9071 17.3291L24.4325 16.7259ZM21.9964 16.6761L22.4505 17.3348L22.4518 17.3339L21.9964 16.6761ZM21.196 17.6754L20.4654 17.3495L20.4643 17.3521L21.196 17.6754ZM21.1911 20.723L20.4546 21.0355L20.4566 21.0402L21.1911 20.723ZM21.9865 21.7422L21.5239 22.3949L21.5269 22.397L21.9865 21.7422ZM24.0298 21.946L23.7159 21.2102L23.7159 21.2102L24.0298 21.946ZM24.6612 21.4886L25.2658 22.0126L25.2658 22.0126L24.6612 21.4886ZM25.0291 20.7727V19.9727H24.4117L24.2552 20.57L25.0291 20.7727ZM26.2024 20.7727L26.9939 20.8891L27.1287 19.9727H26.2024V20.7727ZM25.7102 21.9908L25.0625 21.5213L25.0617 21.5224L25.7102 21.9908ZM24.6811 22.8459L25.0344 23.5637L25.0367 23.5625L24.6811 22.8459ZM23.1996 22.3591C22.6139 22.3591 22.1552 22.2225 21.7879 21.9824L20.9123 23.3216C21.5792 23.7576 22.3535 23.9591 23.1996 23.9591V22.3591ZM21.7879 21.9824C21.4028 21.7306 21.1006 21.3826 20.8812 20.9151L19.4327 21.5948C19.7702 22.3139 20.2634 22.8973 20.9123 23.3216L21.7879 21.9824ZM20.8812 20.9151C20.6602 20.4442 20.5393 19.8855 20.5393 19.2216H18.9393C18.9393 20.0823 19.0969 20.8792 19.4327 21.5948L20.8812 20.9151ZM20.5393 19.2216C20.5393 18.5447 20.6634 17.9823 20.888 17.5148L19.4458 16.8219C19.1004 17.5409 18.9393 18.3473 18.9393 19.2216H20.5393ZM20.8872 17.5165C21.1174 17.0401 21.4249 16.6904 21.8068 16.4416L20.9333 15.101C20.2876 15.5217 19.7931 16.1034 19.4466 16.8202L20.8872 17.5165ZM21.8078 16.4409C22.1799 16.1976 22.6271 16.0642 23.1797 16.0642V14.4642C22.3535 14.4642 21.5942 14.6689 20.9322 15.1017L21.8078 16.4409ZM23.1797 16.0642C23.6161 16.0642 23.9834 16.1445 24.2961 16.2889L24.9666 14.8361C24.4176 14.5828 23.8171 14.4642 23.1797 14.4642V16.0642ZM24.2961 16.2889C24.6157 16.4363 24.8639 16.6352 25.056 16.8852L26.3247 15.9102C25.9666 15.4443 25.5089 15.0864 24.9666 14.8361L24.2961 16.2889ZM25.056 16.8852C25.2409 17.1258 25.3615 17.4112 25.41 17.7606L26.9948 17.5405C26.9108 16.9354 26.69 16.3856 26.3247 15.9102L25.056 16.8852ZM26.2024 16.8506H25.0291V18.4506H26.2024V16.8506ZM25.8039 17.4513C25.6687 16.9256 25.3709 16.4823 24.958 16.1226L23.9071 17.3291C24.1106 17.5064 24.2105 17.6795 24.2543 17.8498L25.8039 17.4513ZM24.9648 16.1286C24.4775 15.6943 23.859 15.5182 23.1996 15.5182V17.1182C23.5743 17.1182 23.7777 17.2138 23.9002 17.3231L24.9648 16.1286ZM23.1996 15.5182C22.595 15.5182 22.0318 15.6787 21.5411 16.0184L22.4518 17.3339C22.6505 17.1963 22.8894 17.1182 23.1996 17.1182V15.5182ZM21.5424 16.0175C21.064 16.3472 20.7091 16.8033 20.4654 17.3495L21.9266 18.0014C22.0674 17.6858 22.2461 17.4757 22.4505 17.3348L21.5424 16.0175ZM20.4643 17.3521C20.2211 17.9024 20.1126 18.5191 20.1126 19.1818H21.7126C21.7126 18.6911 21.7931 18.3036 21.9278 17.9988L20.4643 17.3521ZM20.1126 19.1818C20.1126 19.854 20.2182 20.4784 20.4546 21.0355L21.9275 20.4106C21.7926 20.0927 21.7126 19.6895 21.7126 19.1818H20.1126ZM20.4566 21.0402C20.6954 21.5932 21.047 22.0568 21.5239 22.3949L22.4491 21.0895C22.2433 20.9436 22.0645 20.7278 21.9255 20.4059L20.4566 21.0402ZM21.5269 22.397C22.0199 22.743 22.5886 22.9051 23.1996 22.9051V21.3051C22.8825 21.3051 22.6425 21.2252 22.4461 21.0874L21.5269 22.397ZM23.1996 22.9051C23.5986 22.9051 23.984 22.8354 24.3438 22.6818L23.7159 21.2102C23.5785 21.2688 23.4104 21.3051 23.1996 21.3051V22.9051ZM24.3438 22.6818C24.7009 22.5295 25.0117 22.3057 25.2658 22.0126L24.0567 20.9647C23.966 21.0693 23.8559 21.1505 23.7159 21.2102L24.3438 22.6818ZM25.2658 22.0126C25.5258 21.7126 25.702 21.3612 25.803 20.9754L24.2552 20.57C24.2104 20.7411 24.1414 20.867 24.0567 20.9647L25.2658 22.0126ZM25.0291 21.5727H26.2024V19.9727H25.0291V21.5727ZM25.4109 20.6563C25.363 20.9823 25.247 21.2667 25.0625 21.5213L26.358 22.4602C26.6971 21.9923 26.9093 21.4646 26.9939 20.8891L25.4109 20.6563ZM25.0617 21.5224C24.8853 21.7666 24.6464 21.9701 24.3256 22.1292L25.0367 23.5625C25.5709 23.2975 26.0181 22.9308 26.3588 22.4592L25.0617 21.5224ZM24.3278 22.1281C24.0326 22.2734 23.6638 22.3591 23.1996 22.3591V23.9591C23.8623 23.9591 24.4811 23.836 25.0344 23.5637L24.3278 22.1281ZM29.0909 23V23.8H29.8909V23H29.0909ZM27.9176 23H27.1176V23.8H27.9176V23ZM27.9176 12.8182V12.0182H27.1176V12.8182H27.9176ZM29.0909 12.8182H29.8909V12.0182H29.0909V12.8182ZM29.0909 16.5568H28.2909V17.3568H29.0909V16.5568ZM29.1903 16.5568V17.3568H29.7058L29.9188 16.8874L29.1903 16.5568ZM29.9957 15.6172L30.4309 16.2885L30.4324 16.2875L29.9957 15.6172ZM32.8047 15.5774L32.4279 16.2831L32.4326 16.2856L32.8047 15.5774ZM33.7145 16.527L33 16.887L33.0034 16.8936L33.7145 16.527ZM34.0426 23V23.8H34.8426V23H34.0426ZM32.8693 23H32.0693V23.8H32.8693V23ZM32.397 16.8203L31.8114 17.3654L31.817 17.3713L32.397 16.8203ZM30.0653 16.5618L29.6893 15.8557L29.6861 15.8574L30.0653 16.5618ZM29.3494 17.2727L28.6525 16.8798L28.6494 16.8855L29.3494 17.2727ZM28.2909 18.4062V23H29.8909V18.4062H28.2909ZM29.0909 22.2H27.9176V23.8H29.0909V22.2ZM28.7176 23V12.8182H27.1176V23H28.7176ZM27.9176 13.6182H29.0909V12.0182H27.9176V13.6182ZM28.2909 12.8182V16.5568H29.8909V12.8182H28.2909ZM29.0909 17.3568H29.1903V15.7568H29.0909V17.3568ZM29.9188 16.8874C30.0356 16.63 30.2033 16.436 30.4309 16.2885L29.5606 14.9459C29.0722 15.2624 28.703 15.6948 28.4618 16.2262L29.9188 16.8874ZM30.4324 16.2875C30.6222 16.1639 30.9342 16.0642 31.4375 16.0642V14.4642C30.741 14.4642 30.0918 14.5998 29.5591 14.9469L30.4324 16.2875ZM31.4375 16.0642C31.8493 16.0642 32.1714 16.1462 32.4279 16.2831L33.1815 14.8717C32.6558 14.5911 32.0664 14.4642 31.4375 14.4642V16.0642ZM32.4326 16.2856C32.6636 16.407 32.853 16.5952 33.0001 16.887L34.4289 16.167C34.1451 15.6037 33.728 15.1588 33.1768 14.8692L32.4326 16.2856ZM33.0034 16.8936C33.146 17.1701 33.2426 17.5737 33.2426 18.1477H34.8426C34.8426 17.4092 34.7205 16.7324 34.4255 16.1604L33.0034 16.8936ZM33.2426 18.1477V23H34.8426V18.1477H33.2426ZM34.0426 22.2H32.8693V23.8H34.0426V22.2ZM33.6693 23V18.2273H32.0693V23H33.6693ZM33.6693 18.2273C33.6693 17.4845 33.4743 16.7928 32.977 16.2693L31.817 17.3713C31.9495 17.5107 32.0693 17.757 32.0693 18.2273H33.6693ZM32.9826 16.2753C32.4885 15.7443 31.8246 15.5182 31.0994 15.5182V17.1182C31.4813 17.1182 31.6824 17.2268 31.8114 17.3653L32.9826 16.2753ZM31.0994 15.5182C30.5989 15.5182 30.1226 15.6249 29.6893 15.8557L30.4414 17.2679C30.618 17.1738 30.8311 17.1182 31.0994 17.1182V15.5182ZM29.6861 15.8574C29.2452 16.0948 28.8991 16.4426 28.6526 16.8798L30.0463 17.6656C30.1511 17.4797 30.2822 17.3536 30.4446 17.2662L29.6861 15.8574ZM28.6494 16.8855C28.3972 17.3414 28.2909 17.8597 28.2909 18.4062H29.8909C29.8909 18.0646 29.957 17.8271 30.0495 17.66L28.6494 16.8855ZM41.3794 22.652L40.9416 23.3216L40.9416 23.3216L41.3794 22.652ZM40.1962 17.1683L39.4759 16.8202L39.4751 16.8219L40.1962 17.1683ZM41.3993 15.7713L41.8361 16.4416L41.8371 16.4409L41.3993 15.7713ZM45.7196 16.3977L46.354 15.9102L46.354 15.9102L45.7196 16.3977ZM46.2317 17.6506V18.4506H47.1505L47.0241 17.5405L46.2317 17.6506ZM45.0584 17.6506L44.2836 17.8498L44.4381 18.4506H45.0584V17.6506ZM44.4618 16.7259L43.9295 17.3231L43.9364 17.3291L44.4618 16.7259ZM42.0257 16.6761L42.4798 17.3348L42.4811 17.3339L42.0257 16.6761ZM41.2253 17.6754L40.4947 17.3495L40.4936 17.3521L41.2253 17.6754ZM41.2203 20.723L40.4839 21.0355L40.4859 21.0402L41.2203 20.723ZM42.0158 21.7422L41.5532 22.3949L41.5562 22.397L42.0158 21.7422ZM44.0591 21.946L43.7452 21.2102L43.7452 21.2102L44.0591 21.946ZM44.6905 21.4886L45.2951 22.0126L45.2951 22.0126L44.6905 21.4886ZM45.0584 20.7727V19.9727H44.441L44.2845 20.57L45.0584 20.7727ZM46.2317 20.7727L47.0232 20.8891L47.158 19.9727H46.2317V20.7727ZM45.7395 21.9908L45.0918 21.5213L45.091 21.5224L45.7395 21.9908ZM44.7104 22.8459L45.0637 23.5637L45.066 23.5625L44.7104 22.8459ZM43.2289 22.3591C42.6432 22.3591 42.1845 22.2225 41.8172 21.9824L40.9416 23.3216C41.6085 23.7576 42.3827 23.9591 43.2289 23.9591V22.3591ZM41.8172 21.9824C41.4321 21.7306 41.1298 21.3826 40.9105 20.9151L39.462 21.5948C39.7995 22.3139 40.2927 22.8973 40.9416 23.3216L41.8172 21.9824ZM40.9105 20.9151C40.6895 20.4442 40.5686 19.8855 40.5686 19.2216H38.9686C38.9686 20.0823 39.1262 20.8792 39.462 21.5948L40.9105 20.9151ZM40.5686 19.2216C40.5686 18.5447 40.6927 17.9823 40.9173 17.5148L39.4751 16.8219C39.1297 17.5409 38.9686 18.3473 38.9686 19.2216H40.5686ZM40.9165 17.5165C41.1467 17.0401 41.4542 16.6904 41.8361 16.4416L40.9626 15.101C40.3169 15.5217 39.8224 16.1034 39.4759 16.8202L40.9165 17.5165ZM41.8371 16.4409C42.2092 16.1976 42.6564 16.0642 43.209 16.0642V14.4642C42.3827 14.4642 41.6235 14.6689 40.9615 15.1017L41.8371 16.4409ZM43.209 16.0642C43.6454 16.0642 44.0127 16.1445 44.3254 16.2889L44.9959 14.8361C44.4469 14.5828 43.8464 14.4642 43.209 14.4642V16.0642ZM44.3254 16.2889C44.645 16.4363 44.8932 16.6352 45.0853 16.8852L46.354 15.9102C45.9959 15.4443 45.5382 15.0864 44.9959 14.8361L44.3254 16.2889ZM45.0853 16.8852C45.2702 17.1258 45.3908 17.4112 45.4393 17.7606L47.0241 17.5405C46.9401 16.9354 46.7193 16.3856 46.354 15.9102L45.0853 16.8852ZM46.2317 16.8506H45.0584V18.4506H46.2317V16.8506ZM45.8332 17.4513C45.698 16.9256 45.4002 16.4823 44.9873 16.1226L43.9364 17.3291C44.1399 17.5064 44.2398 17.6795 44.2836 17.8498L45.8332 17.4513ZM44.9941 16.1286C44.5068 15.6943 43.8883 15.5182 43.2289 15.5182V17.1182C43.6036 17.1182 43.807 17.2138 43.9295 17.3231L44.9941 16.1286ZM43.2289 15.5182C42.6243 15.5182 42.0611 15.6787 41.5704 16.0184L42.4811 17.3339C42.6798 17.1963 42.9187 17.1182 43.2289 17.1182V15.5182ZM41.5717 16.0175C41.0933 16.3472 40.7384 16.8033 40.4947 17.3495L41.9559 18.0014C42.0967 17.6858 42.2754 17.4757 42.4798 17.3348L41.5717 16.0175ZM40.4936 17.3521C40.2504 17.9024 40.1419 18.5191 40.1419 19.1818H41.7419C41.7419 18.6911 41.8224 18.3036 41.9571 17.9988L40.4936 17.3521ZM40.1419 19.1818C40.1419 19.854 40.2475 20.4784 40.4839 21.0355L41.9568 20.4106C41.8219 20.0927 41.7419 19.6895 41.7419 19.1818H40.1419ZM40.4859 21.0402C40.7247 21.5932 41.0762 22.0568 41.5532 22.3949L42.4784 21.0895C42.2726 20.9436 42.0938 20.7278 41.9548 20.4059L40.4859 21.0402ZM41.5562 22.397C42.0492 22.743 42.6179 22.9051 43.2289 22.9051V21.3051C42.9118 21.3051 42.6718 21.2252 42.4754 21.0874L41.5562 22.397ZM43.2289 22.9051C43.6279 22.9051 44.0133 22.8354 44.3731 22.6818L43.7452 21.2102C43.6078 21.2688 43.4397 21.3051 43.2289 21.3051V22.9051ZM44.3731 22.6818C44.7302 22.5295 45.041 22.3057 45.2951 22.0126L44.086 20.9647C43.9953 21.0693 43.8852 21.1505 43.7452 21.2102L44.3731 22.6818ZM45.2951 22.0126C45.5551 21.7126 45.7313 21.3612 45.8323 20.9754L44.2845 20.57C44.2397 20.7411 44.1707 20.867 44.086 20.9647L45.2951 22.0126ZM45.0584 21.5727H46.2317V19.9727H45.0584V21.5727ZM45.4402 20.6563C45.3923 20.9823 45.2763 21.2667 45.0918 21.5213L46.3873 22.4602C46.7264 21.9923 46.9386 21.4646 47.0232 20.8891L45.4402 20.6563ZM45.091 21.5224C44.9146 21.7666 44.6757 21.9701 44.3549 22.1292L45.066 23.5625C45.6002 23.2975 46.0474 22.9308 46.3881 22.4592L45.091 21.5224ZM44.3571 22.1281C44.0619 22.2734 43.6931 22.3591 43.2289 22.3591V23.9591C43.8916 23.9591 44.5104 23.836 45.0637 23.5637L44.3571 22.1281ZM48.8766 22.9055L48.536 23.6294L48.541 23.6317L48.8766 22.9055ZM47.937 22.1051L47.2694 22.546L47.2713 22.5489L47.937 22.1051ZM47.8475 19.7685L48.5231 20.1969L48.5254 20.1932L47.8475 19.7685ZM48.5385 19.1222L48.1583 18.4183L48.5385 19.1222ZM49.4931 18.7741L49.6643 19.5556L49.6697 19.5544L49.4931 18.7741ZM50.552 18.5852L50.45 17.7918L50.4482 17.792L50.552 18.5852ZM51.6806 18.451L51.7629 19.2468L51.7709 19.2459L51.6806 18.451ZM52.3169 18.2869L51.9255 17.5892L51.9182 17.5934L52.3169 18.2869ZM52.1181 16.706L51.5454 17.2646L51.5489 17.2682L52.1181 16.706ZM49.5925 16.6662L50.0809 17.2998L50.0809 17.2998L49.5925 16.6662ZM48.9213 17.4517L48.6523 18.2051L49.3396 18.4506L49.6469 17.7886L48.9213 17.4517ZM47.8077 17.054L47.0724 16.7388L46.7371 17.5211L47.5386 17.8074L47.8077 17.054ZM48.6032 15.9702L49.0952 16.601L49.096 16.6003L48.6032 15.9702ZM49.6969 15.4233L49.8986 16.1975L49.903 16.1963L49.6969 15.4233ZM51.7154 15.3537L51.5679 16.14L51.5773 16.1417L51.7154 15.3537ZM52.6451 15.7067L52.2335 16.3927L52.2368 16.3947L52.6451 15.7067ZM53.3958 16.517L52.6949 16.9028L52.6949 16.9028L53.3958 16.517ZM53.6941 23V23.8H54.4941V23H53.6941ZM52.5208 23H51.7208V23.8H52.5208V23ZM52.5208 21.9659H53.3208V21.1659H52.5208V21.9659ZM52.4611 21.9659V21.1659H51.9577L51.7399 21.6197L52.4611 21.9659ZM52.0634 22.4979L52.6341 23.0585L52.6341 23.0585L52.0634 22.4979ZM51.3226 22.9801L51.0065 22.2452L51.3226 22.9801ZM51.5463 21.8516L51.1517 21.1556L51.1487 21.1574L51.5463 21.8516ZM52.2722 21.1456L51.5786 20.747L51.5751 20.753L52.2722 21.1456ZM52.5208 19.1619H53.3208V16.9523L51.9062 18.6498L52.5208 19.1619ZM52.1926 19.326L52.4084 20.0964L52.4184 20.0935L52.1926 19.326ZM51.6159 19.4503L51.7376 20.241L51.7475 20.2394L51.6159 19.4503ZM50.9846 19.5398L51.0758 20.3346L51.0869 20.3332L50.9846 19.5398ZM50.4924 19.5994L50.5958 20.3927L50.5967 20.3926L50.4924 19.5994ZM49.6373 19.7933L49.8874 20.5532L49.8931 20.5513L49.6373 19.7933ZM49.0009 20.1861L48.4135 19.643L48.413 19.6435L49.0009 20.1861ZM49.2147 21.8168L48.7593 22.4746L48.7676 22.4802L49.2147 21.8168ZM50.1941 22.379C49.8128 22.379 49.49 22.3077 49.2122 22.1794L48.541 23.6317C49.052 23.8679 49.6075 23.979 50.1941 23.979V22.379ZM49.2172 22.1817C48.9488 22.0554 48.7503 21.8829 48.6026 21.6614L47.2713 22.5489C47.5876 23.0233 48.0156 23.3845 48.536 23.6294L49.2172 22.1817ZM48.6045 21.6643C48.4736 21.4659 48.389 21.2017 48.389 20.8324H46.789C46.789 21.4574 46.9364 22.0417 47.2694 22.546L48.6045 21.6643ZM48.389 20.8324C48.389 20.4938 48.4563 20.3023 48.5231 20.1969L47.1719 19.34C46.894 19.7782 46.789 20.296 46.789 20.8324H48.389ZM48.5254 20.1932C48.6236 20.0365 48.7509 19.9167 48.9188 19.826L48.1583 18.4183C47.7495 18.6392 47.4161 18.9503 47.1695 19.3437L48.5254 20.1932ZM48.9188 19.826C49.136 19.7087 49.3829 19.6172 49.6643 19.5556L49.3219 17.9927C48.9072 18.0835 48.5178 18.2241 48.1583 18.4183L48.9188 19.826ZM49.6697 19.5544C49.9972 19.4803 50.3258 19.4216 50.6558 19.3785L50.4482 17.792C50.0689 17.8416 49.6916 17.9089 49.3164 17.9939L49.6697 19.5544ZM50.654 19.3787C51.1149 19.3194 51.4838 19.2756 51.7629 19.2467L51.5983 17.6552C51.3006 17.686 50.9171 17.7317 50.45 17.7918L50.654 19.3787ZM51.7709 19.2459C52.0897 19.2097 52.4365 19.141 52.7157 18.9805L51.9182 17.5934C51.9348 17.5839 51.9224 17.594 51.8587 17.6105C51.7983 17.626 51.7107 17.6424 51.5902 17.6561L51.7709 19.2459ZM52.7083 18.9846C53.1542 18.7345 53.3208 18.2947 53.3208 17.8892H51.7208C51.7208 17.8889 51.7208 17.8765 51.7253 17.8549C51.73 17.8328 51.7394 17.8015 51.7579 17.7655C51.7991 17.685 51.8629 17.6244 51.9255 17.5892L52.7083 18.9846ZM53.3208 17.8892V17.8494H51.7208V17.8892H53.3208ZM53.3208 17.8494C53.3208 17.2109 53.1424 16.6045 52.6872 16.1438L51.5489 17.2682C51.6307 17.351 51.7208 17.5069 51.7208 17.8494H53.3208ZM52.6907 16.1473C52.2209 15.6657 51.5735 15.4983 50.91 15.4983V17.0983C51.3269 17.0983 51.485 17.2026 51.5455 17.2646L52.6907 16.1473ZM50.91 15.4983C50.2414 15.4983 49.6081 15.6441 49.1041 16.0326L50.0809 17.2998C50.2133 17.1978 50.4582 17.0983 50.91 17.0983V15.4983ZM49.1041 16.0326C48.7145 16.3329 48.3932 16.6895 48.1957 17.1148L49.6469 17.7886C49.708 17.6571 49.8342 17.49 50.0809 17.2998L49.1041 16.0326ZM49.1904 16.6983L48.0768 16.3006L47.5386 17.8074L48.6523 18.2051L49.1904 16.6983ZM48.543 17.3691C48.6994 17.0043 48.8896 16.7613 49.0952 16.601L48.1111 15.3394C47.6538 15.6961 47.3138 16.1756 47.0724 16.7388L48.543 17.3691ZM49.096 16.6003C49.3484 16.4029 49.6146 16.2714 49.8986 16.1975L49.4952 14.6491C48.9904 14.7806 48.5275 15.0137 48.1103 15.34L49.096 16.6003ZM49.903 16.1963C50.2383 16.1069 50.5601 16.0642 50.8702 16.0642V14.4642C50.4114 14.4642 49.951 14.5276 49.4908 14.6503L49.903 16.1963ZM50.8702 16.0642C51.0532 16.0642 51.284 16.0867 51.5679 16.14L51.8628 14.5674C51.5104 14.5013 51.1777 14.4642 50.8702 14.4642V16.0642ZM51.5773 16.1417C51.7959 16.18 52.0137 16.2608 52.2335 16.3927L53.0567 15.0207C52.6798 14.7946 52.2778 14.6401 51.8535 14.5657L51.5773 16.1417ZM52.2368 16.3947C52.3956 16.4889 52.5527 16.6444 52.6949 16.9028L54.0966 16.1313C53.8411 15.6671 53.4978 15.2824 53.0533 15.0187L52.2368 16.3947ZM52.6949 16.9028C52.8052 17.1032 52.8941 17.4381 52.8941 17.9688H54.4941C54.4941 17.2863 54.384 16.6534 54.0966 16.1313L52.6949 16.9028ZM52.8941 17.9688V23H54.4941V17.9688H52.8941ZM53.6941 22.2H52.5208V23.8H53.6941V22.2ZM53.3208 23V21.9659H51.7208V23H53.3208ZM52.5208 21.1659H52.4611V22.7659H52.5208V21.1659ZM51.7399 21.6197C51.7112 21.6796 51.6415 21.7858 51.4927 21.9372L52.6341 23.0585C52.8565 22.8321 53.052 22.5837 53.1823 22.3121L51.7399 21.6197ZM51.4927 21.9372C51.3965 22.0352 51.2439 22.1431 51.0065 22.2452L51.6387 23.715C52.0178 23.5519 52.3591 23.3384 52.6341 23.0585L51.4927 21.9372ZM51.0065 22.2452C50.8248 22.3234 50.5629 22.379 50.1941 22.379V23.979C50.7135 23.979 51.2039 23.902 51.6387 23.715L51.0065 22.2452ZM50.373 22.925C50.9402 22.925 51.4767 22.8135 51.944 22.5457L51.1487 21.1574C50.9796 21.2542 50.734 21.325 50.373 21.325V22.925ZM51.9409 22.5475C52.3738 22.302 52.7274 21.9676 52.9692 21.5382L51.5751 20.753C51.4922 20.9003 51.3619 21.0365 51.1518 21.1556L51.9409 22.5475ZM52.9658 21.5442C53.1979 21.1403 53.3208 20.7003 53.3208 20.2358H51.7208C51.7208 20.4076 51.6779 20.5742 51.5786 20.747L52.9658 21.5442ZM53.3208 20.2358V19.1619H51.7208V20.2358H53.3208ZM51.9062 18.6498C51.9465 18.6014 51.984 18.5715 52.0054 18.5561C52.0273 18.5404 52.0419 18.5331 52.0437 18.5321C52.046 18.531 52.0413 18.5335 52.0273 18.5387C52.0136 18.5438 51.9939 18.5506 51.9669 18.5585L52.4184 20.0935C52.5304 20.0606 52.6481 20.0188 52.7592 19.9632C52.8621 19.9118 53.0109 19.8234 53.1354 19.6741L51.9062 18.6498ZM51.9769 18.5556C51.8455 18.5924 51.6824 18.6282 51.4844 18.6612L51.7475 20.2394C51.987 20.1995 52.2084 20.1524 52.4084 20.0964L51.9769 18.5556ZM51.4943 18.6596C51.2849 18.6918 51.0809 18.7207 50.8822 18.7464L51.0869 20.3332C51.2992 20.3058 51.5161 20.2751 51.7376 20.241L51.4943 18.6596ZM50.8933 18.745C50.689 18.7684 50.5201 18.7889 50.388 18.8063L50.5967 20.3926C50.7165 20.3768 50.8757 20.3575 51.0758 20.3346L50.8933 18.745ZM50.3889 18.8062C50.0372 18.852 49.7007 18.9276 49.3814 19.0353L49.8931 20.5513C50.1041 20.4801 50.3377 20.4264 50.5958 20.3927L50.3889 18.8062ZM49.3872 19.0334C49.0161 19.1555 48.6813 19.3533 48.4135 19.643L49.5883 20.7292C49.6453 20.6675 49.7347 20.6035 49.8873 20.5532L49.3872 19.0334ZM48.413 19.6435C48.0834 20.0006 47.9623 20.4493 47.9623 20.892H49.5623C49.5623 20.8131 49.5729 20.7685 49.5798 20.748C49.5832 20.738 49.5859 20.733 49.5869 20.7313C49.5878 20.7297 49.5883 20.7292 49.5887 20.7287L48.413 19.6435ZM47.9623 20.892C47.9623 21.5281 48.2152 22.0979 48.7593 22.4745L49.67 21.159C49.6109 21.1181 49.5623 21.0713 49.5623 20.892H47.9623ZM48.7676 22.4802C49.2363 22.796 49.7895 22.925 50.373 22.925V21.325C50.022 21.325 49.8029 21.2485 49.6617 21.1533L48.7676 22.4802ZM55.8356 23H55.0356V23.8H55.8356V23ZM55.8356 15.3636V14.5636H55.0356V15.3636H55.8356ZM56.9691 15.3636H57.7691V14.5636H56.9691V15.3636ZM56.9691 16.5568H56.1691V17.3568H56.9691V16.5568ZM57.0685 16.5568V17.3568H57.6151L57.8138 16.8477L57.0685 16.5568ZM57.8391 15.6072L58.2682 16.2824L58.2727 16.2796L57.8391 15.6072ZM60.3746 15.6072L59.9233 16.2679L59.9309 16.2729L60.3746 15.6072ZM61.1651 16.5568L60.4393 16.8932L60.6541 17.3568H61.1651V16.5568ZM61.2447 16.5568V17.3568H61.741L61.9614 16.9122L61.2447 16.5568ZM62.1246 15.6172L62.5328 16.3052L62.5371 16.3027L62.1246 15.6172ZM65.207 15.9055L64.6457 16.4756L64.6479 16.4777L65.207 15.9055ZM65.8583 23V23.8H66.6583V23H65.8583ZM64.685 23H63.885V23.8H64.685V23ZM64.2227 16.6811L63.7287 17.3104L63.7287 17.3104L64.2227 16.6811ZM61.886 16.8054L62.4755 17.3463L62.4782 17.3432L61.886 16.8054ZM61.4435 23V23.8H62.2435V23H61.4435ZM60.2504 23H59.4504V23.8H60.2504V23ZM59.8278 16.7209L59.2759 17.3L59.2795 17.3034L59.8278 16.7209ZM57.8839 16.5618L57.466 15.8796L57.4622 15.8819L57.8839 16.5618ZM57.2475 17.2379L56.5505 16.8453L56.549 16.848L57.2475 17.2379ZM57.0089 23V23.8H57.8089V23H57.0089ZM56.6356 23V15.3636H55.0356V23H56.6356ZM55.8356 16.1636H56.9691V14.5636H55.8356V16.1636ZM56.1691 15.3636V16.5568H57.7691V15.3636H56.1691ZM56.9691 17.3568H57.0685V15.7568H56.9691V17.3568ZM57.8138 16.8477C57.9138 16.5914 58.0634 16.4126 58.2682 16.2824L57.41 14.9321C56.9056 15.2526 56.5415 15.7069 56.3233 16.266L57.8138 16.8477ZM58.2727 16.2796C58.4765 16.1481 58.7456 16.0642 59.1168 16.0642V14.4642C58.4938 14.4642 57.911 14.609 57.4056 14.9349L58.2727 16.2796ZM59.1168 16.0642C59.4989 16.0642 59.7507 16.1499 59.9234 16.2678L60.8259 14.9467C60.3291 14.6072 59.7423 14.4642 59.1168 14.4642V16.0642ZM59.9309 16.2729C60.1337 16.4081 60.3055 16.6046 60.4393 16.8932L61.891 16.2204C61.6469 15.6937 61.2917 15.2572 60.8184 14.9416L59.9309 16.2729ZM61.1651 17.3568H61.2447V15.7568H61.1651V17.3568ZM61.9614 16.9122C62.086 16.6609 62.2699 16.4612 62.5328 16.3052L61.7165 14.9291C61.1972 15.2372 60.7944 15.664 60.5279 16.2015L61.9614 16.9122ZM62.5371 16.3027C62.781 16.1559 63.1011 16.0642 63.5316 16.0642V14.4642C62.8683 14.4642 62.2505 14.6078 61.7122 14.9317L62.5371 16.3027ZM63.5316 16.0642C64.0319 16.0642 64.3798 16.2137 64.6457 16.4756L65.7683 15.3355C65.1659 14.7423 64.3968 14.4642 63.5316 14.4642V16.0642ZM64.6479 16.4777C64.8674 16.6921 65.0583 17.1034 65.0583 17.8892H66.6583C66.6583 16.8786 66.4151 15.9674 65.7661 15.3333L64.6479 16.4777ZM65.0583 17.8892V23H66.6583V17.8892H65.0583ZM65.8583 22.2H64.685V23.8H65.8583V22.2ZM65.485 23V17.8892H63.885V23H65.485ZM65.485 17.8892C65.485 17.1926 65.292 16.5034 64.7166 16.0518L63.7287 17.3104C63.7698 17.3427 63.885 17.4589 63.885 17.8892H65.485ZM64.7166 16.0518C64.2579 15.6917 63.718 15.5182 63.1339 15.5182V17.1182C63.385 17.1182 63.571 17.1866 63.7287 17.3104L64.7166 16.0518ZM63.1339 15.5182C62.4259 15.5182 61.7735 15.7393 61.2938 16.2676L62.4782 17.3432C62.5884 17.2219 62.768 17.1182 63.1339 17.1182V15.5182ZM61.2965 16.2645C60.8481 16.7533 60.6435 17.3627 60.6435 18.0284H62.2435C62.2435 17.7064 62.334 17.5005 62.4755 17.3463L61.2965 16.2645ZM60.6435 18.0284V23H62.2435V18.0284H60.6435ZM61.4435 22.2H60.2504V23.8H61.4435V22.2ZM61.0504 23V17.7699H59.4504V23H61.0504ZM61.0504 17.7699C61.0504 17.1449 60.8389 16.5739 60.3761 16.1383L59.2795 17.3034C59.3801 17.3982 59.4504 17.5265 59.4504 17.7699H61.0504ZM60.3797 16.1417C59.9279 15.7113 59.3573 15.5182 58.739 15.5182V17.1182C59.0089 17.1182 59.1641 17.1936 59.2759 17.3L60.3797 16.1417ZM58.739 15.5182C58.2836 15.5182 57.8543 15.6418 57.466 15.8796L58.3017 17.244C58.4437 17.157 58.5846 17.1182 58.739 17.1182V15.5182ZM57.4622 15.8819C57.0774 16.1206 56.774 16.4485 56.5505 16.8453L57.9446 17.6305C58.0459 17.4506 58.1667 17.3278 58.3056 17.2416L57.4622 15.8819ZM56.549 16.848C56.3141 17.2688 56.2089 17.7366 56.2089 18.2273H57.8089C57.8089 17.9689 57.8628 17.7771 57.9461 17.6278L56.549 16.848ZM56.2089 18.2273V23H57.8089V18.2273H56.2089ZM57.0089 22.2H55.8356V23.8H57.0089V22.2ZM68.0036 25.8636H67.2036V26.6636H68.0036V25.8636ZM68.0036 15.3636V14.5636H67.2036V15.3636H68.0036ZM69.1371 15.3636H69.9371V14.5636H69.1371V15.3636ZM69.1371 16.5767H68.3371V17.3767H69.1371V16.5767ZM69.2763 16.5767V17.3767H69.7104L69.947 17.0127L69.2763 16.5767ZM69.6342 16.0696L68.993 15.5912L68.9918 15.5929L69.6342 16.0696ZM70.3004 15.5128L70.693 16.2098L70.6956 16.2083L70.3004 15.5128ZM73.1839 15.7464L73.6225 15.0774L73.6225 15.0774L73.1839 15.7464ZM74.3324 17.1136L75.0574 16.7756L75.0574 16.7756L74.3324 17.1136ZM74.3324 21.3047L75.0574 21.6428L75.0582 21.6412L74.3324 21.3047ZM73.1889 22.6768L73.6295 23.3446L73.6327 23.3425L73.1889 22.6768ZM70.3253 22.9155L69.9334 23.613L69.9394 23.6163L70.3253 22.9155ZM69.6442 22.3537L69.0042 22.8337L69.0078 22.8385L69.6442 22.3537ZM69.2763 21.8267L69.9565 21.4056L69.7219 21.0267H69.2763V21.8267ZM69.1768 21.8267V21.0267H68.3768V21.8267H69.1768ZM69.1768 25.8636V26.6636H69.9768V25.8636H69.1768ZM69.4105 20.7081L68.6635 20.9945L68.6643 20.9964L69.4105 20.7081ZM70.1513 21.7372L69.6651 22.3725L69.6692 22.3756L70.1513 21.7372ZM72.5724 21.7173L73.0675 22.3457L73.0684 22.3451L72.5724 21.7173ZM73.3182 20.6634L72.5705 20.3788L72.5694 20.3818L73.3182 20.6634ZM73.3232 17.7301L72.5738 18.0104L72.5765 18.0173L73.3232 17.7301ZM72.5824 16.701L72.0912 17.3325L72.0983 17.3379L72.5824 16.701ZM70.1413 16.6811L70.615 17.3258L70.6192 17.3227L70.1413 16.6811ZM69.4055 17.6854L70.1515 17.9745L70.1522 17.9726L69.4055 17.6854ZM68.8036 25.8636V15.3636H67.2036V25.8636H68.8036ZM68.0036 16.1636H69.1371V14.5636H68.0036V16.1636ZM68.3371 15.3636V16.5767H69.9371V15.3636H68.3371ZM69.1371 17.3767H69.2763V15.7767H69.1371V17.3767ZM69.947 17.0127C70.0205 16.8997 70.1289 16.7455 70.2767 16.5463L68.9918 15.5929C68.8346 15.8047 68.7045 15.9885 68.6055 16.1407L69.947 17.0127ZM70.2755 16.548C70.3491 16.4493 70.4765 16.3318 70.693 16.2098L69.9078 14.8157C69.5476 15.0186 69.2309 15.2723 68.993 15.5912L70.2755 16.548ZM70.6956 16.2083C70.8224 16.1363 71.063 16.0642 71.4837 16.0642V14.4642C70.91 14.4642 70.3617 14.5578 69.9052 14.8172L70.6956 16.2083ZM71.4837 16.0642C71.9865 16.0642 72.3977 16.1876 72.7454 16.4155L73.6225 15.0774C72.9892 14.6623 72.2668 14.4642 71.4837 14.4642V16.0642ZM72.7454 16.4155C73.0981 16.6467 73.388 16.9813 73.6073 17.4517L75.0574 16.7756C74.7266 16.066 74.2508 15.4892 73.6225 15.0774L72.7454 16.4155ZM73.6073 17.4517C73.823 17.9142 73.945 18.4899 73.945 19.2017H75.545C75.545 18.3093 75.392 17.493 75.0574 16.7756L73.6073 17.4517ZM73.945 19.2017C73.945 19.921 73.8227 20.5022 73.6066 20.9682L75.0582 21.6412C75.3923 20.9206 75.545 20.0998 75.545 19.2017H73.945ZM73.6073 20.9666C73.3871 21.4389 73.0971 21.7766 72.7452 22.0112L73.6327 23.3425C74.2552 22.9275 74.7275 22.3504 75.0574 21.6428L73.6073 20.9666ZM72.7483 22.0091C72.4036 22.2366 71.998 22.3591 71.5036 22.3591V23.9591C72.2818 23.9591 72.9998 23.7601 73.6295 23.3446L72.7483 22.0091ZM71.5036 22.3591C71.0905 22.3591 70.8461 22.289 70.7111 22.2147L69.9394 23.6163C70.3944 23.8668 70.9356 23.9591 71.5036 23.9591V22.3591ZM70.7171 22.218C70.491 22.091 70.3573 21.9697 70.2805 21.8689L69.0078 22.8385C69.2492 23.1553 69.5697 23.4086 69.9334 23.613L70.7171 22.218ZM70.2842 21.8737C70.1318 21.6705 70.0249 21.5162 69.9565 21.4056L68.5961 22.2478C68.7 22.4157 68.8384 22.6126 69.0042 22.8337L70.2842 21.8737ZM69.2763 21.0267H69.1768V22.6267H69.2763V21.0267ZM68.3768 21.8267V25.8636H69.9768V21.8267H68.3768ZM69.1768 25.0636H68.0036V26.6636H69.1768V25.0636ZM68.357 19.1818C68.357 19.8354 68.4526 20.4445 68.6635 20.9945L70.1575 20.4217C70.0303 20.09 69.957 19.6816 69.957 19.1818H68.357ZM68.6643 20.9964C68.8784 21.5507 69.2069 22.0219 69.6651 22.3725L70.6375 21.1019C70.446 20.9554 70.2806 20.7404 70.1567 20.4198L68.6643 20.9964ZM69.6692 22.3756C70.1539 22.7416 70.7281 22.9051 71.3445 22.9051V21.3051C71.0195 21.3051 70.7983 21.2233 70.6334 21.0988L69.6692 22.3756ZM71.3445 22.9051C71.982 22.9051 72.5747 22.734 73.0675 22.3457L72.0773 21.0889C71.9139 21.2177 71.688 21.3051 71.3445 21.3051V22.9051ZM73.0684 22.3451C73.5268 21.9829 73.8561 21.5059 74.067 20.9449L72.5694 20.3818C72.4488 20.7025 72.281 20.9281 72.0765 21.0896L73.0684 22.3451ZM74.0659 20.9479C74.2741 20.4008 74.3717 19.8088 74.3717 19.1818H72.7717C72.7717 19.642 72.7003 20.0376 72.5705 20.3788L74.0659 20.9479ZM74.3717 19.1818C74.3717 18.5625 74.276 17.9791 74.0698 17.4429L72.5765 18.0173C72.7017 18.3429 72.7717 18.7273 72.7717 19.1818H74.3717ZM74.0725 17.4498C73.8633 16.8907 73.5316 16.4176 73.0665 16.0641L72.0983 17.3379C72.2961 17.4882 72.4582 17.7012 72.5739 18.0104L74.0725 17.4498ZM73.0735 16.0695C72.579 15.6848 71.9835 15.5182 71.3445 15.5182V17.1182C71.6998 17.1182 71.9296 17.2067 72.0912 17.3325L73.0735 16.0695ZM71.3445 15.5182C70.7267 15.5182 70.1498 15.6772 69.6634 16.0395L70.6192 17.3227C70.7825 17.2011 71.0076 17.1182 71.3445 17.1182V15.5182ZM69.6677 16.0364C69.2024 16.3783 68.8713 16.8458 68.6589 17.3982L70.1522 17.9726C70.2712 17.6632 70.4307 17.4612 70.615 17.3258L69.6677 16.0364ZM68.6596 17.3962C68.4506 17.9354 68.357 18.536 68.357 19.1818H69.957C69.957 18.6874 70.029 18.2904 70.1515 17.9745L68.6596 17.3962ZM77.8324 22.6719L77.4114 23.3522L77.4164 23.3552L77.8324 22.6719ZM76.6044 21.2997L75.8841 21.6477L75.8864 21.6526L76.6044 21.2997ZM76.6044 17.1733L75.8834 16.8267L75.8826 16.8284L76.6044 17.1733ZM77.8075 15.7713L78.2443 16.4416L78.2453 16.4409L77.8075 15.7713ZM80.7955 15.4631L81.0543 14.7061L81.0543 14.7061L80.7955 15.4631ZM81.8544 16.1094L81.3072 16.693L81.3105 16.696L81.8544 16.1094ZM82.6151 17.2827L83.3609 16.9934L83.3609 16.9934L82.6151 17.2827ZM82.8984 19.5795V20.3795H83.6984V19.5795H82.8984ZM77.0121 19.5795H76.2121V20.3795H77.0121V19.5795ZM77.0121 18.5653V17.7653H76.2121V18.5653H77.0121ZM81.7053 18.5653V19.3653H82.5053V18.5653H81.7053ZM81.4467 17.4119L80.7312 17.7697L80.734 17.7753L81.4467 17.4119ZM80.7209 16.6115L80.2956 17.2891L80.2988 17.2911L80.7209 16.6115ZM78.4041 16.6662L78.8524 17.3288L78.8538 17.3279L78.4041 16.6662ZM77.6236 17.5611L76.9068 17.2059L76.9068 17.2059L77.6236 17.5611ZM77.6484 20.8871L76.9317 21.2425L76.9353 21.2496L77.6484 20.8871ZM78.4886 21.7969L78.0855 22.4879L78.0903 22.4907L78.4886 21.7969ZM80.5717 21.9759L80.8338 22.7317L80.8395 22.7297L80.5717 21.9759ZM81.223 21.5781L81.7782 22.1542L81.7835 22.149L81.223 21.5781ZM81.6456 20.9119L81.8618 20.1417L81.1545 19.9432L80.8965 20.631L81.6456 20.9119ZM82.7791 21.2301L83.5432 21.4672L83.7868 20.6821L82.9953 20.4599L82.7791 21.2301ZM82.1776 22.2443L82.7498 22.8034L82.753 22.8001L82.1776 22.2443ZM81.1335 22.9205L81.4203 23.6673L81.4255 23.6653L81.1335 22.9205ZM79.7365 22.3591C79.121 22.3591 78.6359 22.2244 78.2483 21.9885L77.4164 23.3552C78.0962 23.769 78.8804 23.9591 79.7365 23.9591V22.3591ZM78.2533 21.9916C77.8571 21.7464 77.5478 21.4054 77.3224 20.9468L75.8864 21.6526C76.2377 22.3673 76.747 22.9411 77.4114 23.3522L78.2533 21.9916ZM77.3247 20.9517C77.1013 20.4893 76.9768 19.9262 76.9768 19.2415H75.3768C75.3768 20.1211 75.5374 20.9302 75.8841 21.6477L77.3247 20.9517ZM76.9768 19.2415C76.9768 18.557 77.1012 17.9891 77.3262 17.5182L75.8826 16.8284C75.5375 17.5507 75.3768 18.3616 75.3768 19.2415H76.9768ZM77.3254 17.5199C77.556 17.0401 77.8635 16.6897 78.2443 16.4416L77.3708 15.101C76.7241 15.5225 76.2295 16.1066 75.8834 16.8267L77.3254 17.5199ZM78.2453 16.4409C78.6174 16.1976 79.0646 16.0642 79.6172 16.0642V14.4642C78.791 14.4642 78.0317 14.6689 77.3697 15.1017L78.2453 16.4409ZM79.6172 16.0642C79.9242 16.0642 80.2296 16.1151 80.5367 16.2201L81.0543 14.7061C80.5857 14.5459 80.1056 14.4642 79.6172 14.4642V16.0642ZM80.5367 16.2201C80.8103 16.3136 81.0664 16.4672 81.3073 16.693L82.4016 15.5257C82.006 15.1549 81.5562 14.8777 81.0543 14.7061L80.5367 16.2201ZM81.3105 16.696C81.5233 16.8933 81.7153 17.175 81.8692 17.5719L83.3609 16.9934C83.137 16.4159 82.8219 15.9154 82.3983 15.5227L81.3105 16.696ZM81.8692 17.5719C82.0119 17.94 82.0984 18.4351 82.0984 19.0824H83.6984C83.6984 18.3045 83.5961 17.5998 83.3609 16.9934L81.8692 17.5719ZM82.0984 19.0824V19.5795H83.6984V19.0824H82.0984ZM82.8984 18.7795H77.0121V20.3795H82.8984V18.7795ZM77.8121 19.5795V18.5653H76.2121V19.5795H77.8121ZM77.0121 19.3653H81.7053V17.7653H77.0121V19.3653ZM82.5053 18.5653C82.5053 18.0254 82.3965 17.5136 82.1595 17.0486L80.734 17.7753C80.8416 17.9864 80.9053 18.2435 80.9053 18.5653H82.5053ZM82.1623 17.0542C81.9284 16.5865 81.5861 16.2071 81.1429 15.9319L80.2988 17.2911C80.4854 17.407 80.627 17.5612 80.7312 17.7697L82.1623 17.0542ZM81.1462 15.9339C80.6886 15.6467 80.1683 15.5182 79.6172 15.5182V17.1182C79.9145 17.1182 80.13 17.1852 80.2956 17.2891L81.1462 15.9339ZM79.6172 15.5182C79.0114 15.5182 78.4455 15.6708 77.9544 16.0045L78.8538 17.3279C79.0455 17.1976 79.2883 17.1182 79.6172 17.1182V15.5182ZM77.9559 16.0036C77.5025 16.3103 77.1501 16.7148 76.9068 17.2059L78.3404 17.9163C78.4617 17.6716 78.6296 17.4795 78.8524 17.3288L77.9559 16.0036ZM76.9068 17.2059C76.6683 17.687 76.5501 18.2034 76.5501 18.7443H78.1501C78.1501 18.4434 78.2142 18.1709 78.3404 17.9163L76.9068 17.2059ZM76.5501 18.7443V19.4205H78.1501V18.7443H76.5501ZM76.5501 19.4205C76.5501 20.0861 76.6646 20.7038 76.9317 21.2425L78.3652 20.5317C78.2345 20.2682 78.1501 19.9082 78.1501 19.4205H76.5501ZM76.9353 21.2496C77.2015 21.7734 77.5846 22.1957 78.0855 22.4879L78.8917 21.1059C78.6768 20.9805 78.4997 20.7962 78.3616 20.5246L76.9353 21.2496ZM78.0903 22.4907C78.5865 22.7755 79.1438 22.9051 79.7365 22.9051V21.3051C79.3813 21.3051 79.1067 21.2292 78.8869 21.1031L78.0903 22.4907ZM79.7365 22.9051C80.119 22.9051 80.4879 22.8516 80.8338 22.7317L80.3097 21.22C80.1585 21.2724 79.9705 21.3051 79.7365 21.3051V22.9051ZM80.8395 22.7297C81.1926 22.6043 81.5093 22.4133 81.7781 22.1542L80.6679 21.0021C80.5722 21.0943 80.4546 21.1685 80.3039 21.222L80.8395 22.7297ZM81.7835 22.149C82.0577 21.8798 82.2587 21.5553 82.3947 21.1928L80.8965 20.631C80.8336 20.7989 80.7529 20.9185 80.6625 21.0073L81.7835 22.149ZM81.4294 21.6822L82.5629 22.0003L82.9953 20.4599L81.8618 20.1417L81.4294 21.6822ZM82.0151 20.993C81.9331 21.257 81.7976 21.4862 81.6021 21.6885L82.753 22.8001C83.121 22.4191 83.3865 21.9721 83.5432 21.4672L82.0151 20.993ZM81.6053 21.6852C81.4107 21.8845 81.1614 22.0503 80.8416 22.1756L81.4255 23.6653C81.9343 23.4658 82.381 23.1809 82.7498 22.8034L81.6053 21.6852ZM80.8467 22.1736C80.5377 22.2923 80.1714 22.3591 79.7365 22.3591V23.9591C80.3357 23.9591 80.9007 23.8668 81.4203 23.6673L80.8467 22.1736ZM90.0923 17.0739L90.3102 17.8436L91.1176 17.6151L90.8508 16.8195L90.0923 17.0739ZM89.0384 17.3722L88.2899 17.6546L88.5493 18.342L89.2562 18.1419L89.0384 17.3722ZM88.745 16.8601L88.1035 17.3381L88.1088 17.3451L88.1142 17.3521L88.745 16.8601ZM88.228 16.4425L88.5858 15.7269L88.5858 15.7269L88.228 16.4425ZM86.2195 16.6016L86.673 17.2606L86.6745 17.2596L86.2195 16.6016ZM86.0753 18.103L85.5767 18.7286L85.5767 18.7286L86.0753 18.103ZM87.0696 18.5256L86.8756 19.3017L86.8788 19.3025L87.0696 18.5256ZM88.2031 18.804L88.0123 19.5809L88.0144 19.5814L88.2031 18.804ZM89.7294 19.5646L89.1582 20.1247L89.1609 20.1275L89.7294 19.5646ZM89.8537 22.0455L89.2078 21.5734L89.2048 21.5775L89.8537 22.0455ZM85.3146 22.652L85.7564 21.985L85.7564 21.985L85.3146 22.652ZM84.3452 21.1705L84.1511 20.3943L83.4045 20.581L83.5621 21.3343L84.3452 21.1705ZM85.4588 20.892L86.2334 20.6921L86.035 19.9234L85.2648 20.1159L85.4588 20.892ZM86.0604 21.8168L85.6031 22.4732L85.6065 22.4756L86.0604 21.8168ZM88.5312 21.777L88.9994 22.4257L89.0006 22.4248L88.5312 21.777ZM88.7401 20.2656L88.1795 20.8364L88.1847 20.8415L88.7401 20.2656ZM87.8849 19.858L87.7024 20.6368L87.7036 20.6371L87.8849 19.858ZM86.6122 19.5597L86.4278 20.3381L86.4297 20.3386L86.6122 19.5597ZM85.071 18.7891L84.4836 19.3322L84.489 19.3379L85.071 18.7891ZM84.9467 16.3281L84.3036 15.8522L84.3006 15.8564L84.9467 16.3281ZM85.946 15.5476L85.6206 14.8168L85.6184 14.8177L85.946 15.5476ZM89.1676 15.7614L88.6798 16.3955L88.6822 16.3973L89.1676 15.7614ZM89.8745 16.3041L88.8205 16.6024L89.2562 18.1419L90.3102 17.8436L89.8745 16.3041ZM89.7868 17.0897C89.6889 16.8303 89.5488 16.5898 89.3758 16.3681L88.1142 17.3521C88.1998 17.4618 88.2552 17.5627 88.2899 17.6546L89.7868 17.0897ZM89.3865 16.3821C89.1748 16.0979 88.8984 15.8833 88.5858 15.7269L87.8702 17.158C87.995 17.2204 88.0634 17.2842 88.1035 17.3381L89.3865 16.3821ZM88.5858 15.7269C88.2209 15.5445 87.8071 15.4784 87.3878 15.4784V17.0784C87.6512 17.0784 87.7976 17.1217 87.8702 17.158L88.5858 15.7269ZM87.3878 15.4784C86.7963 15.4784 86.2382 15.616 85.7645 15.9436L86.6745 17.2596C86.8239 17.1563 87.0446 17.0784 87.3878 17.0784V15.4784ZM85.7659 15.9425C85.2761 16.2796 84.9571 16.7803 84.9571 17.4119H86.5571C86.5571 17.379 86.5632 17.3673 86.5675 17.3597C86.574 17.3483 86.5982 17.3121 86.673 17.2606L85.7659 15.9425ZM84.9571 17.4119C84.9571 17.9261 85.1582 18.3951 85.5767 18.7286L86.5738 17.4773C86.5649 17.4702 86.5618 17.4663 86.5618 17.4662C86.5617 17.4661 86.5619 17.4664 86.5624 17.4671C86.5628 17.4678 86.5631 17.4684 86.5633 17.4689C86.5653 17.4733 86.5571 17.4595 86.5571 17.4119H84.9571ZM85.5767 18.7286C85.9207 19.0027 86.382 19.1783 86.8756 19.3017L87.2636 17.7495C86.8557 17.6475 86.6541 17.5413 86.5738 17.4773L85.5767 18.7286ZM86.8788 19.3025L88.0123 19.5809L88.3939 18.0271L87.2604 17.7487L86.8788 19.3025ZM88.0144 19.5814C88.616 19.7274 88.9663 19.929 89.1582 20.1247L90.3006 19.0045C89.823 18.5175 89.1558 18.212 88.3918 18.0265L88.0144 19.5814ZM89.1609 20.1275C89.3288 20.297 89.4315 20.5214 89.4315 20.8722H91.0315C91.0315 20.1557 90.7995 19.5084 90.2979 19.0017L89.1609 20.1275ZM89.4315 20.8722C89.4315 21.1445 89.3569 21.3694 89.2078 21.5734L90.4996 22.5175C90.8543 22.0322 91.0315 21.4748 91.0315 20.8722H89.4315ZM89.2048 21.5775C89.051 21.7909 88.8228 21.9795 88.4847 22.1297L89.1346 23.5918C89.6914 23.3444 90.1593 22.9894 90.5026 22.5134L89.2048 21.5775ZM88.4847 22.1297C88.1589 22.2746 87.7531 22.3591 87.2486 22.3591V23.9591C87.9306 23.9591 88.5656 23.8447 89.1346 23.5918L88.4847 22.1297ZM87.2486 22.3591C86.5842 22.3591 86.1043 22.2155 85.7564 21.985L84.8729 23.319C85.5458 23.7646 86.3551 23.9591 87.2486 23.9591V22.3591ZM85.7564 21.985C85.4371 21.7736 85.225 21.4692 85.1282 21.0067L83.5621 21.3343C83.7371 22.1709 84.1713 22.8543 84.8729 23.319L85.7564 21.985ZM84.5392 21.9466L85.6528 21.6682L85.2648 20.1159L84.1511 20.3943L84.5392 21.9466ZM84.6842 21.0919C84.829 21.653 85.1237 22.1392 85.6031 22.4732L86.5177 21.1603C86.4071 21.0833 86.3008 20.9531 86.2334 20.6921L84.6842 21.0919ZM85.6065 22.4756C86.0756 22.7987 86.6382 22.925 87.2287 22.925V21.325C86.858 21.325 86.6417 21.2458 86.5142 21.158L85.6065 22.4756ZM87.2287 22.925C87.8814 22.925 88.4986 22.7871 88.9994 22.4257L88.0631 21.1283C87.9209 21.2309 87.6698 21.325 87.2287 21.325V22.925ZM89.0006 22.4248C89.4812 22.0767 89.8185 21.5744 89.8185 20.9318H88.2185C88.2185 20.957 88.2141 20.9715 88.2036 20.9897C88.1902 21.0129 88.1538 21.0625 88.0619 21.1291L89.0006 22.4248ZM89.8185 20.9318C89.8185 20.4564 89.6423 20.0242 89.2954 19.6897L88.1847 20.8415C88.2047 20.8607 88.2093 20.8715 88.2107 20.8749C88.2123 20.8787 88.2185 20.8943 88.2185 20.9318H89.8185ZM89.3006 19.6949C88.9693 19.3694 88.5253 19.1856 88.0663 19.0788L87.7036 20.6371C88.0135 20.7093 88.1396 20.7972 88.1795 20.8364L89.3006 19.6949ZM88.0675 19.0791L86.7948 18.7808L86.4297 20.3386L87.7024 20.6368L88.0675 19.0791ZM86.7967 18.7812C86.1779 18.6346 85.8327 18.4307 85.6531 18.2403L84.489 19.3379C84.9656 19.8434 85.6479 20.1533 86.4278 20.3381L86.7967 18.7812ZM85.6584 18.246C85.4846 18.058 85.3838 17.8194 85.3838 17.4716H83.7838C83.7838 18.1778 84.0078 18.8175 84.4836 19.3321L85.6584 18.246ZM85.3838 17.4716C85.3838 17.2012 85.4561 16.9872 85.5929 16.7998L84.3006 15.8564C83.9535 16.3319 83.7838 16.8802 83.7838 17.4716H85.3838ZM85.5898 16.804C85.7441 16.5955 85.9627 16.417 86.2736 16.2774L85.6184 14.8177C85.0875 15.056 84.6399 15.3978 84.3037 15.8523L85.5898 16.804ZM86.2715 16.2784C86.5785 16.1417 86.9456 16.0642 87.3878 16.0642V14.4642C86.7561 14.4642 86.162 14.5757 85.6206 14.8168L86.2715 16.2784ZM87.3878 16.0642C88.0346 16.0642 88.4343 16.2066 88.6798 16.3955L89.6554 15.1273C89.0392 14.6533 88.2524 14.4642 87.3878 14.4642V16.0642ZM88.6822 16.3973C88.9828 16.6267 89.1997 16.9283 89.3338 17.3282L90.8508 16.8195C90.6203 16.1323 90.2208 15.5589 89.653 15.1255L88.6822 16.3973ZM91.9977 23H91.1977V23.8H91.9977V23ZM91.9977 15.3636V14.5636H91.1977V15.3636H91.9977ZM93.171 15.3636H93.971V14.5636H93.171V15.3636ZM93.171 23V23.8H93.971V23H93.171ZM92.0027 13.8572L91.4489 14.4346L91.4547 14.4401L92.0027 13.8572ZM92.0027 12.7337L91.4547 12.1507L91.4489 12.1563L92.0027 12.7337ZM93.1809 12.7337L92.6271 13.311L92.633 13.3166L93.1809 12.7337ZM93.1809 13.8572L92.633 13.2743L92.6271 13.2799L93.1809 13.8572ZM92.7977 23V15.3636H91.1977V23H92.7977ZM91.9977 16.1636H93.171V14.5636H91.9977V16.1636ZM92.371 15.3636V23H93.971V15.3636H92.371ZM93.171 22.2H91.9977V23.8H93.171V22.2ZM92.5943 13.2909C92.5827 13.2909 92.5758 13.2899 92.5726 13.2894C92.5709 13.2891 92.5699 13.2888 92.5694 13.2887C92.569 13.2885 92.5688 13.2884 92.5687 13.2884C92.5687 13.2884 92.5686 13.2884 92.5682 13.2882C92.5679 13.288 92.5671 13.2876 92.5659 13.2868C92.5636 13.2854 92.5584 13.2817 92.5506 13.2743L91.4547 14.4401C91.7697 14.7362 92.1632 14.8909 92.5943 14.8909V13.2909ZM92.5564 13.2799C92.5497 13.2734 92.5477 13.2704 92.5483 13.2713C92.5491 13.2724 92.5514 13.276 92.5539 13.2817C92.5564 13.2875 92.558 13.2928 92.5587 13.2967C92.5595 13.3005 92.5591 13.3004 92.5591 13.2955H90.9591C90.9591 13.7391 91.1343 14.1328 91.4489 14.4346L92.5564 13.2799ZM92.5591 13.2955C92.5591 13.2905 92.5595 13.2905 92.5587 13.2942C92.558 13.2981 92.5564 13.3034 92.5539 13.3092C92.5514 13.315 92.5491 13.3185 92.5483 13.3196C92.5477 13.3205 92.5497 13.3175 92.5564 13.311L91.4489 12.1563C91.1343 12.4581 90.9591 12.8518 90.9591 13.2955H92.5591ZM92.5506 13.3166C92.5584 13.3092 92.5636 13.3056 92.5659 13.3041C92.5671 13.3033 92.5679 13.3029 92.5682 13.3027C92.5686 13.3026 92.5687 13.3025 92.5687 13.3025C92.5688 13.3025 92.569 13.3024 92.5694 13.3023C92.5699 13.3021 92.5709 13.3019 92.5726 13.3016C92.5758 13.301 92.5827 13.3 92.5943 13.3V11.7C92.1632 11.7 91.7697 11.8547 91.4547 12.1508L92.5506 13.3166ZM92.5943 13.3C92.6059 13.3 92.6125 13.301 92.6151 13.3015C92.6176 13.3019 92.6177 13.3021 92.6164 13.3016C92.6152 13.3011 92.6147 13.3008 92.6156 13.3013C92.6166 13.302 92.6205 13.3047 92.6272 13.311L93.7347 12.1563C93.4207 11.8551 93.0256 11.7 92.5943 11.7V13.3ZM92.633 13.3166C92.6403 13.3234 92.6425 13.3267 92.6419 13.3258C92.6411 13.3248 92.6386 13.321 92.6358 13.3147C92.633 13.3083 92.6311 13.3021 92.6301 13.2973C92.6292 13.2925 92.6295 13.2915 92.6295 13.2955H94.2295C94.2295 12.8463 94.0482 12.451 93.7289 12.1508L92.633 13.3166ZM92.6295 13.2955C92.6295 13.2994 92.6292 13.2984 92.6301 13.2936C92.6311 13.2888 92.633 13.2826 92.6358 13.2763C92.6386 13.27 92.6411 13.2661 92.6419 13.2651C92.6425 13.2642 92.6403 13.2675 92.633 13.2743L93.7289 14.4401C94.0482 14.1399 94.2295 13.7447 94.2295 13.2955H92.6295ZM92.6271 13.2799C92.6205 13.2862 92.6166 13.2889 92.6156 13.2896C92.6147 13.2902 92.6152 13.2898 92.6164 13.2893C92.6177 13.2888 92.6176 13.289 92.6151 13.2895C92.6125 13.2899 92.6059 13.2909 92.5943 13.2909V14.8909C93.0256 14.8909 93.4207 14.7358 93.7347 14.4346L92.6271 13.2799ZM96.4933 23V23.8H97.2933V23H96.4933ZM95.32 23H94.52V23.8H95.32V23ZM95.32 15.3636V14.5636H94.52V15.3636H95.32ZM96.4535 15.3636H97.2535V14.5636H96.4535V15.3636ZM96.4535 16.5568H95.6535V17.3568H96.4535V16.5568ZM96.5529 16.5568V17.3568H97.0648L97.2793 16.8921L96.5529 16.5568ZM97.3683 15.6222L97.8021 16.2943L97.8064 16.2915L97.3683 15.6222ZM100.137 15.5824L99.7535 16.2843L99.7581 16.2868L100.137 15.5824ZM101.042 16.5369L100.328 16.8969L100.329 16.8992L101.042 16.5369ZM101.365 23V23.8H102.165V23H101.365ZM100.192 23H99.3921V23.8H100.192V23ZM99.7248 16.8253L99.1365 17.3674L99.1392 17.3703L99.7248 16.8253ZM97.4379 16.5618L97.052 15.861L97.0487 15.8628L97.4379 16.5618ZM96.7468 17.2727L96.0436 16.8912L96.0436 16.8912L96.7468 17.2727ZM95.6933 18.4062V23H97.2933V18.4062H95.6933ZM96.4933 22.2H95.32V23.8H96.4933V22.2ZM96.12 23V15.3636H94.52V23H96.12ZM95.32 16.1636H96.4535V14.5636H95.32V16.1636ZM95.6535 15.3636V16.5568H97.2535V15.3636H95.6535ZM96.4535 17.3568H96.5529V15.7568H96.4535V17.3568ZM97.2793 16.8921C97.3936 16.6444 97.5628 16.4487 97.8021 16.2943L96.9344 14.95C96.4445 15.2662 96.0702 15.6937 95.8265 16.2216L97.2793 16.8921ZM97.8064 16.2915C98.0048 16.1616 98.3097 16.0642 98.7802 16.0642V14.4642C98.0972 14.4642 97.4609 14.6054 96.9301 14.9528L97.8064 16.2915ZM98.7802 16.0642C99.1859 16.0642 99.502 16.1467 99.7535 16.2842L100.521 14.8805C99.9973 14.5939 99.4085 14.4642 98.7802 14.4642V16.0642ZM99.7581 16.2868C99.9889 16.411 100.179 16.6024 100.328 16.8969L101.757 16.1769C101.474 15.6163 101.062 15.1714 100.517 14.878L99.7581 16.2868ZM100.329 16.8992C100.47 17.1778 100.565 17.5803 100.565 18.1477H102.165C102.165 17.4159 102.045 16.7445 101.756 16.1747L100.329 16.8992ZM100.565 18.1477V23H102.165V18.1477H100.565ZM101.365 22.2H100.192V23.8H101.365V22.2ZM100.992 23V18.2273H99.3921V23H100.992ZM100.992 18.2273C100.992 17.4899 100.798 16.8045 100.31 16.2803L99.1392 17.3703C99.2744 17.5156 99.3921 17.7648 99.3921 18.2273H100.992ZM100.313 16.2831C99.8224 15.7507 99.1648 15.5182 98.4421 15.5182V17.1182C98.8066 17.1182 99.0041 17.2238 99.1365 17.3674L100.313 16.2831ZM98.4421 15.5182C97.9481 15.5182 97.478 15.6264 97.052 15.861L97.8237 17.2626C97.9877 17.1723 98.1871 17.1182 98.4421 17.1182V15.5182ZM97.0487 15.8628C96.616 16.1037 96.2804 16.4548 96.0436 16.8912L97.45 17.6542C97.5513 17.4675 97.6764 17.3446 97.827 17.2607L97.0487 15.8628ZM96.0436 16.8912C95.7969 17.3459 95.6933 17.862 95.6933 18.4062H97.2933C97.2933 18.0623 97.3586 17.8227 97.45 17.6542L96.0436 16.8912ZM104.797 22.6669L104.368 23.3424L104.37 23.3436L104.797 22.6669ZM103.584 21.2898L102.865 21.6411L102.867 21.6443L103.584 21.2898ZM103.584 17.1385L102.866 16.7855L102.864 16.7888L103.584 17.1385ZM104.797 15.7564L104.37 15.0797L104.368 15.0809L104.797 15.7564ZM108.421 15.7564L107.993 16.4319L107.995 16.4331L108.421 15.7564ZM109.634 17.1385L108.915 17.4882L108.916 17.4914L109.634 17.1385ZM109.634 21.2898L108.917 20.9352L108.916 20.9385L109.634 21.2898ZM108.421 22.6669L107.995 21.9902L107.993 21.9914L108.421 22.6669ZM107.904 21.7024L107.407 21.0759L107.407 21.0759L107.904 21.7024ZM108.655 20.6435L109.405 20.9219L109.405 20.9219L108.655 20.6435ZM108.655 17.7947L109.406 17.5182L109.406 17.5182L108.655 17.7947ZM107.904 16.7259L108.406 16.1024L108.406 16.1024L107.904 16.7259ZM105.319 16.7259L104.818 16.1024L104.818 16.1024L105.319 16.7259ZM104.568 17.7947L103.818 17.5182L103.818 17.5182L104.568 17.7947ZM104.568 20.6435L103.818 20.9219L103.818 20.9219L104.568 20.6435ZM105.319 21.7024L105.817 21.0759L105.817 21.0759L105.319 21.7024ZM106.612 22.3591C106.055 22.3591 105.601 22.2283 105.224 21.9902L104.37 23.3436C105.033 23.7617 105.79 23.9591 106.612 23.9591V22.3591ZM105.226 21.9914C104.842 21.7477 104.533 21.404 104.301 20.9352L102.867 21.6443C103.218 22.3555 103.718 22.9298 104.368 23.3424L105.226 21.9914ZM104.303 20.9385C104.078 20.4778 103.951 19.9129 103.951 19.2216H102.351C102.351 20.108 102.514 20.9219 102.865 21.6411L104.303 20.9385ZM103.951 19.2216C103.951 18.5227 104.078 17.9524 104.304 17.4882L102.864 16.7888C102.513 17.5112 102.351 18.3296 102.351 19.2216H103.951ZM104.302 17.4914C104.534 17.0193 104.843 16.6749 105.226 16.4319L104.368 15.0809C103.717 15.4942 103.217 16.0711 102.866 16.7855L104.302 17.4914ZM105.224 16.4331C105.601 16.195 106.055 16.0642 106.612 16.0642V14.4642C105.79 14.4642 105.033 14.6616 104.37 15.0797L105.224 16.4331ZM106.612 16.0642C107.169 16.0642 107.619 16.195 107.993 16.4319L108.85 15.0809C108.189 14.6615 107.433 14.4642 106.612 14.4642V16.0642ZM107.995 16.4331C108.38 16.6759 108.687 17.019 108.915 17.4882L110.354 16.7888C110.005 16.0714 109.504 15.4932 108.848 15.0797L107.995 16.4331ZM108.916 17.4914C109.144 17.9548 109.272 18.5239 109.272 19.2216H110.872C110.872 18.3283 110.708 17.5087 110.352 16.7855L108.916 17.4914ZM109.272 19.2216C109.272 19.9116 109.145 20.4753 108.917 20.9352L110.352 21.6443C110.708 20.9243 110.872 20.1092 110.872 19.2216H109.272ZM108.916 20.9385C108.688 21.4043 108.381 21.7467 107.995 21.9902L108.848 23.3436C109.503 22.9308 110.004 22.3551 110.353 21.6411L108.916 20.9385ZM107.993 21.9914C107.619 22.2283 107.169 22.3591 106.612 22.3591V23.9591C107.433 23.9591 108.189 23.7618 108.85 23.3424L107.993 21.9914ZM106.612 22.9051C107.276 22.9051 107.894 22.7322 108.402 22.3289L107.407 21.0759C107.238 21.2096 106.994 21.3051 106.612 21.3051V22.9051ZM108.402 22.3289C108.863 21.9623 109.196 21.4848 109.405 20.9219L107.905 20.3651C107.789 20.6772 107.621 20.9056 107.407 21.0759L108.402 22.3289ZM109.405 20.9219C109.603 20.3873 109.699 19.8181 109.699 19.2216H108.099C108.099 19.6459 108.031 20.0246 107.905 20.3651L109.405 20.9219ZM109.699 19.2216C109.699 18.625 109.603 18.0549 109.406 17.5182L107.904 18.0713C108.031 18.4162 108.099 18.7974 108.099 19.2216H109.699ZM109.406 17.5182C109.197 16.9529 108.866 16.4725 108.406 16.1024L107.403 17.3494C107.619 17.5227 107.788 17.7549 107.904 18.0713L109.406 17.5182ZM108.406 16.1024C107.898 15.694 107.279 15.5182 106.612 15.5182V17.1182C106.992 17.1182 107.235 17.2141 107.403 17.3494L108.406 16.1024ZM106.612 15.5182C105.945 15.5182 105.326 15.694 104.818 16.1024L105.82 17.3494C105.989 17.2141 106.231 17.1182 106.612 17.1182V15.5182ZM104.818 16.1024C104.357 16.4725 104.026 16.9529 103.818 17.5182L105.319 18.0713C105.436 17.7549 105.605 17.5227 105.82 17.3494L104.818 16.1024ZM103.818 17.5182C103.62 18.0549 103.525 18.625 103.525 19.2216H105.125C105.125 18.7974 105.192 18.4162 105.319 18.0713L103.818 17.5182ZM103.525 19.2216C103.525 19.8181 103.62 20.3873 103.818 20.9219L105.318 20.3651C105.192 20.0246 105.125 19.6459 105.125 19.2216H103.525ZM103.818 20.9219C104.027 21.4848 104.36 21.9623 104.822 22.3289L105.817 21.0759C105.602 20.9056 105.434 20.6772 105.318 20.3651L103.818 20.9219ZM104.822 22.3289C105.329 22.7322 105.947 22.9051 106.612 22.9051V21.3051C106.229 21.3051 105.985 21.2096 105.817 21.0759L104.822 22.3289ZM117.272 17.0739L117.49 17.8436L118.297 17.6151L118.03 16.8195L117.272 17.0739ZM116.218 17.3722L115.47 17.6546L115.729 18.342L116.436 18.1419L116.218 17.3722ZM115.925 16.8601L115.283 17.3381L115.288 17.3451L115.294 17.3521L115.925 16.8601ZM115.408 16.4425L115.765 15.7269L115.765 15.7269L115.408 16.4425ZM113.399 16.6016L113.853 17.2606L113.854 17.2596L113.399 16.6016ZM113.255 18.103L112.756 18.7286L112.756 18.7286L113.255 18.103ZM114.249 18.5256L114.055 19.3017L114.058 19.3025L114.249 18.5256ZM115.383 18.804L115.192 19.5809L115.194 19.5814L115.383 18.804ZM116.909 19.5646L116.338 20.1247L116.341 20.1275L116.909 19.5646ZM117.033 22.0455L116.387 21.5734L116.385 21.5775L117.033 22.0455ZM112.494 22.652L112.936 21.985L112.936 21.985L112.494 22.652ZM111.525 21.1705L111.331 20.3943L110.584 20.581L110.742 21.3343L111.525 21.1705ZM112.638 20.892L113.413 20.6921L113.215 19.9234L112.444 20.1159L112.638 20.892ZM113.24 21.8168L112.783 22.4732L112.786 22.4756L113.24 21.8168ZM115.711 21.777L116.179 22.4257L116.18 22.4248L115.711 21.777ZM115.92 20.2656L115.359 20.8364L115.364 20.8415L115.92 20.2656ZM115.065 19.858L114.882 20.6368L114.883 20.6371L115.065 19.858ZM113.792 19.5597L113.607 20.3381L113.609 20.3386L113.792 19.5597ZM112.251 18.7891L111.663 19.3322L111.669 19.3379L112.251 18.7891ZM112.126 16.3281L111.483 15.8522L111.48 15.8564L112.126 16.3281ZM113.126 15.5476L112.8 14.8168L112.798 14.8177L113.126 15.5476ZM116.347 15.7614L115.86 16.3955L115.862 16.3973L116.347 15.7614ZM117.054 16.3041L116 16.6024L116.436 18.1419L117.49 17.8436L117.054 16.3041ZM116.967 17.0897C116.869 16.8303 116.728 16.5898 116.556 16.3681L115.294 17.3521C115.379 17.4618 115.435 17.5627 115.47 17.6546L116.967 17.0897ZM116.566 16.3821C116.354 16.0979 116.078 15.8833 115.765 15.7269L115.05 17.158C115.175 17.2204 115.243 17.2842 115.283 17.3381L116.566 16.3821ZM115.765 15.7269C115.401 15.5445 114.987 15.4784 114.567 15.4784V17.0784C114.831 17.0784 114.977 17.1217 115.05 17.158L115.765 15.7269ZM114.567 15.4784C113.976 15.4784 113.418 15.616 112.944 15.9436L113.854 17.2596C114.004 17.1563 114.224 17.0784 114.567 17.0784V15.4784ZM112.946 15.9425C112.456 16.2796 112.137 16.7803 112.137 17.4119H113.737C113.737 17.379 113.743 17.3673 113.747 17.3597C113.754 17.3483 113.778 17.3121 113.853 17.2606L112.946 15.9425ZM112.137 17.4119C112.137 17.9261 112.338 18.3951 112.756 18.7286L113.754 17.4773C113.745 17.4702 113.742 17.4663 113.741 17.4662C113.741 17.4661 113.742 17.4664 113.742 17.4671C113.742 17.4678 113.743 17.4684 113.743 17.4689C113.745 17.4733 113.737 17.4595 113.737 17.4119H112.137ZM112.756 18.7286C113.1 19.0027 113.562 19.1783 114.055 19.3017L114.443 17.7495C114.035 17.6475 113.834 17.5413 113.754 17.4773L112.756 18.7286ZM114.058 19.3025L115.192 19.5809L115.574 18.0271L114.44 17.7487L114.058 19.3025ZM115.194 19.5814C115.796 19.7274 116.146 19.929 116.338 20.1247L117.48 19.0045C117.003 18.5175 116.335 18.212 115.572 18.0265L115.194 19.5814ZM116.341 20.1275C116.508 20.297 116.611 20.5214 116.611 20.8722H118.211C118.211 20.1557 117.979 19.5084 117.478 19.0017L116.341 20.1275ZM116.611 20.8722C116.611 21.1445 116.537 21.3694 116.387 21.5734L117.679 22.5175C118.034 22.0322 118.211 21.4748 118.211 20.8722H116.611ZM116.385 21.5775C116.231 21.7909 116.002 21.9795 115.664 22.1297L116.314 23.5918C116.871 23.3444 117.339 22.9894 117.682 22.5134L116.385 21.5775ZM115.664 22.1297C115.339 22.2746 114.933 22.3591 114.428 22.3591V23.9591C115.11 23.9591 115.745 23.8447 116.314 23.5918L115.664 22.1297ZM114.428 22.3591C113.764 22.3591 113.284 22.2155 112.936 21.985L112.053 23.319C112.725 23.7646 113.535 23.9591 114.428 23.9591V22.3591ZM112.936 21.985C112.617 21.7736 112.405 21.4692 112.308 21.0067L110.742 21.3343C110.917 22.1709 111.351 22.8543 112.053 23.319L112.936 21.985ZM111.719 21.9466L112.833 21.6682L112.444 20.1159L111.331 20.3943L111.719 21.9466ZM111.864 21.0919C112.009 21.653 112.303 22.1392 112.783 22.4732L113.697 21.1603C113.587 21.0833 113.48 20.9531 113.413 20.6921L111.864 21.0919ZM112.786 22.4756C113.255 22.7987 113.818 22.925 114.408 22.925V21.325C114.038 21.325 113.821 21.2458 113.694 21.158L112.786 22.4756ZM114.408 22.925C115.061 22.925 115.678 22.7871 116.179 22.4257L115.243 21.1283C115.101 21.2309 114.849 21.325 114.408 21.325V22.925ZM116.18 22.4248C116.661 22.0767 116.998 21.5744 116.998 20.9318H115.398C115.398 20.957 115.394 20.9715 115.383 20.9897C115.37 21.0129 115.334 21.0625 115.242 21.1291L116.18 22.4248ZM116.998 20.9318C116.998 20.4564 116.822 20.0242 116.475 19.6897L115.364 20.8415C115.384 20.8607 115.389 20.8715 115.39 20.8749C115.392 20.8787 115.398 20.8943 115.398 20.9318H116.998ZM116.48 19.6949C116.149 19.3694 115.705 19.1856 115.246 19.0788L114.883 20.6371C115.193 20.7093 115.319 20.7972 115.359 20.8364L116.48 19.6949ZM115.247 19.0791L113.974 18.7808L113.609 20.3386L114.882 20.6368L115.247 19.0791ZM113.976 18.7812C113.358 18.6346 113.012 18.4307 112.833 18.2403L111.669 19.3379C112.145 19.8434 112.828 20.1533 113.607 20.3381L113.976 18.7812ZM112.838 18.246C112.664 18.058 112.563 17.8194 112.563 17.4716H110.963C110.963 18.1778 111.187 18.8175 111.663 19.3321L112.838 18.246ZM112.563 17.4716C112.563 17.2012 112.636 16.9872 112.773 16.7998L111.48 15.8564C111.133 16.3319 110.963 16.8802 110.963 17.4716H112.563ZM112.769 16.804C112.924 16.5955 113.142 16.417 113.453 16.2774L112.798 14.8177C112.267 15.056 111.82 15.3978 111.483 15.8523L112.769 16.804ZM113.451 16.2784C113.758 16.1417 114.125 16.0642 114.567 16.0642V14.4642C113.936 14.4642 113.342 14.5757 112.8 14.8168L113.451 16.2784ZM114.567 16.0642C115.214 16.0642 115.614 16.2066 115.86 16.3955L116.835 15.1273C116.219 14.6533 115.432 14.4642 114.567 14.4642V16.0642ZM115.862 16.3973C116.162 16.6267 116.379 16.9283 116.514 17.3282L118.03 16.8195C117.8 16.1323 117.401 15.5589 116.833 15.1255L115.862 16.3973Z" fill="black"/>
</svg>
